<svg xmlns="http://www.w3.org/2000/svg" xmlns:xlink="http://www.w3.org/1999/xlink" viewBox="0 0 179.1 268.54"><defs><style>.cls-1{fill:#fff;stroke:#1d1d1b;}.cls-1,.cls-2{stroke-miterlimit:10;}.cls-2{fill:#1d1d1b;stroke:#fff;}.cls-3{fill:url(#Безымянный_градиент_40);}.cls-4{fill:url(#Безымянный_градиент_40-2);}.cls-5{fill:url(#Безымянный_градиент_40-3);}.cls-6{fill:url(#Безымянный_градиент_40-4);}.cls-7{fill:url(#Безымянный_градиент_40-5);}.cls-8{fill:url(#Безымянный_градиент_40-6);}.cls-9{fill:url(#Безымянный_градиент_40-7);}.cls-10{fill:url(#Безымянный_градиент_40-8);}.cls-11{fill:url(#Безымянный_градиент_33);}.cls-12{fill:url(#Безымянный_градиент_33-2);}.cls-13{font-size:12px;fill:#2d2d2d;font-family:Cormorant-SemiBold, Cormorant;font-weight:600;}</style><linearGradient id="Безымянный_градиент_40" x1="23.68" y1="10.58" x2="23.68" y2="35.3" gradientUnits="userSpaceOnUse"><stop offset="0.02" stop-color="#00dbff"/><stop offset="0.18" stop-color="#00bddc"/><stop offset="0.53" stop-color="#006f82"/><stop offset="1"/></linearGradient><linearGradient id="Безымянный_градиент_40-2" x1="31.69" y1="7.67" x2="31.69" y2="19.65" xlink:href="#Безымянный_градиент_40"/><linearGradient id="Безымянный_градиент_40-3" x1="-99.92" y1="10.58" x2="-99.92" y2="35.3" gradientTransform="matrix(-1, 0, 0, 1, 56.07, 0)" xlink:href="#Безымянный_градиент_40"/><linearGradient id="Безымянный_градиент_40-4" x1="-91.91" y1="7.67" x2="-91.91" y2="19.65" gradientTransform="matrix(-1, 0, 0, 1, 56.07, 0)" xlink:href="#Безымянный_градиент_40"/><linearGradient id="Безымянный_градиент_40-5" x1="23.16" y1="261.87" x2="23.16" y2="286.59" gradientTransform="matrix(1, 0, 0, -1, 0, 505.37)" xlink:href="#Безымянный_градиент_40"/><linearGradient id="Безымянный_градиент_40-6" x1="31.17" y1="258.96" x2="31.17" y2="270.94" gradientTransform="matrix(1, 0, 0, -1, 0, 505.37)" xlink:href="#Безымянный_градиент_40"/><linearGradient id="Безымянный_градиент_40-7" x1="-99.39" y1="261.87" x2="-99.39" y2="286.59" gradientTransform="translate(56.07 505.37) rotate(180)" xlink:href="#Безымянный_градиент_40"/><linearGradient id="Безымянный_градиент_40-8" x1="-91.39" y1="258.96" x2="-91.39" y2="270.94" gradientTransform="translate(56.07 505.37) rotate(180)" xlink:href="#Безымянный_градиент_40"/><linearGradient id="Безымянный_градиент_33" x1="22.48" y1="131.08" x2="90.08" y2="131.08" gradientUnits="userSpaceOnUse"><stop offset="0.03" stop-color="#4d4ae9"/><stop offset="0.07" stop-color="#4745d8"/><stop offset="0.21" stop-color="#3533a0"/><stop offset="0.35" stop-color="#25236f"/><stop offset="0.49" stop-color="#171747"/><stop offset="0.63" stop-color="#0d0d28"/><stop offset="0.76" stop-color="#060612"/><stop offset="0.89" stop-color="#010105"/><stop offset="1"/></linearGradient><linearGradient id="Безымянный_градиент_33-2" x1="-527.32" y1="131.08" x2="-459.72" y2="131.08" gradientTransform="matrix(-1, 0, 0, 1, -371.04, 0)" xlink:href="#Безымянный_градиент_33"/></defs><g id="Слой_2" data-name="Слой 2"><g id="Слой_1-2" data-name="Слой 1"><rect class="cls-1" x="0.5" y="0.5" width="178.1" height="267.54" rx="13.84"/><path class="cls-2" d="M159.73,39.21c-12,0-21.76-9-21.76-20.1,0-.36,0-.72,0-1.08a8.46,8.46,0,0,0-8.62-8.86H49.08A8.45,8.45,0,0,0,40.47,18q0,.54,0,1.08c0,11.1-9.74,20.1-21.76,20.1h-.63a8.55,8.55,0,0,0-9,8.3v160c0,4.68,4.07,8.32,9,8.3h.1c12,0,21.76,9,21.76,20.1,0,.36,0,.71,0,1.06-.27,4.76,3.9,8.69,8.93,8.69h79.66c5,0,9.21-3.93,8.94-8.69,0-.35,0-.7,0-1.06,0-11.1,9.74-20.1,21.76-20.1.34,0,.68,0,1,0a8.51,8.51,0,0,0,9-8.31v-160a8.57,8.57,0,0,0-9-8.31Z"/><path class="cls-3" d="M15.06,23.2s8.86,0,8.86-12.62c0,0,.12,13,8.39,13,0,0-8.36-.18-8.36,11.74C24,35.3,24.84,23.2,15.06,23.2Z"/><path class="cls-4" d="M27.51,13.79s4.29,0,4.29-6.12c0,0,.06,6.29,4.07,6.29,0,0-4-.08-4,5.69C31.82,19.65,32.25,13.79,27.51,13.79Z"/><path class="cls-5" d="M164.61,23.2s-8.85,0-8.85-12.62c0,0-.13,13-8.4,13,0,0,8.36-.18,8.36,11.74C155.72,35.3,154.83,23.2,164.61,23.2Z"/><path class="cls-6" d="M152.17,13.79s-4.29,0-4.29-6.12c0,0-.07,6.29-4.07,6.29,0,0,4.05-.08,4.05,5.69C147.86,19.65,147.43,13.79,152.17,13.79Z"/><path class="cls-7" d="M14.54,230.87s8.85,0,8.85,12.63c0,0,.13-13,8.4-13,0,0-8.36.18-8.36-11.73C23.43,218.78,24.32,230.87,14.54,230.87Z"/><path class="cls-8" d="M27,240.29s4.29,0,4.29,6.11c0,0,.06-6.29,4.06-6.29,0,0-4.05.09-4.05-5.68C31.29,234.43,31.73,240.29,27,240.29Z"/><path class="cls-9" d="M164.09,230.87s-8.85,0-8.85,12.63c0,0-.13-13-8.4-13,0,0,8.36.18,8.36-11.73C155.2,218.78,154.31,230.87,164.09,230.87Z"/><path class="cls-10" d="M151.65,240.29s-4.3,0-4.3,6.11c0,0-.06-6.29-4.06-6.29,0,0,4.05.09,4.05-5.68C147.34,234.43,146.91,240.29,151.65,240.29Z"/><path class="cls-11" d="M89.56,132.52S72.89,90.91,31.81,84.22c0,0-18.9-.13-2.89,28.88,0,0,4.07,21,15.75,21h5.77S41.12,138,36.79,145.65c0,0,1.84,6.69,0,10,0,0,4.86,5.38,3.42,9.71,0,0,7.08,3.94,7.08,8.14,0,0,8.14.66,9.72,4.2,0,0,5-2,7.61.26L73,174l17.06-28.88Z"/><path class="cls-12" d="M89.21,132.52S105.88,90.91,147,84.22c0,0,18.9-.13,2.89,28.88,0,0-4.07,21-15.75,21h-5.78S137.64,138,142,145.65c0,0-1.84,6.69,0,10,0,0-4.86,5.38-3.41,9.71,0,0-7.09,3.94-7.09,8.14,0,0-8.14.66-9.71,4.2,0,0-5-2-7.61.26l-8.4-3.93L88.68,145.12Z"/><text class="cls-13" transform="translate(76.2 259.68)">МИР</text></g></g></svg>