<svg xmlns="http://www.w3.org/2000/svg" xmlns:xlink="http://www.w3.org/1999/xlink" viewBox="0 0 179.1 268.54"><defs><style>.cls-1{fill:#fff;stroke:#1d1d1b;}.cls-1,.cls-2{stroke-miterlimit:10;}.cls-2{fill:#1d1d1b;stroke:#fff;}.cls-3{fill:url(#Безымянный_градиент_40);}.cls-4{fill:url(#Безымянный_градиент_40-2);}.cls-5{fill:url(#Безымянный_градиент_40-3);}.cls-6{fill:url(#Безымянный_градиент_40-4);}.cls-7{fill:url(#Безымянный_градиент_40-5);}.cls-8{fill:url(#Безымянный_градиент_40-6);}.cls-9{fill:url(#Безымянный_градиент_40-7);}.cls-10{fill:url(#Безымянный_градиент_40-8);}.cls-11{fill:url(#Безымянный_градиент_60);}.cls-12{font-size:12px;fill:#2d2d2d;font-family:Cormorant-SemiBold, Cormorant;font-weight:600;}.cls-13{letter-spacing:-0.04em;}</style><linearGradient id="Безымянный_градиент_40" x1="23.68" y1="10.58" x2="23.68" y2="35.3" gradientUnits="userSpaceOnUse"><stop offset="0.02" stop-color="#00dbff"/><stop offset="0.18" stop-color="#00bddc"/><stop offset="0.53" stop-color="#006f82"/><stop offset="1"/></linearGradient><linearGradient id="Безымянный_градиент_40-2" x1="31.69" y1="7.67" x2="31.69" y2="19.65" xlink:href="#Безымянный_градиент_40"/><linearGradient id="Безымянный_градиент_40-3" x1="-97.93" y1="10.58" x2="-97.93" y2="35.3" gradientTransform="matrix(-1, 0, 0, 1, 58.06, 0)" xlink:href="#Безымянный_градиент_40"/><linearGradient id="Безымянный_градиент_40-4" x1="-89.93" y1="7.67" x2="-89.93" y2="19.65" gradientTransform="matrix(-1, 0, 0, 1, 58.06, 0)" xlink:href="#Безымянный_градиент_40"/><linearGradient id="Безымянный_градиент_40-5" x1="23.16" y1="822.78" x2="23.16" y2="847.5" gradientTransform="matrix(1, 0, 0, -1, 0, 1066.28)" xlink:href="#Безымянный_градиент_40"/><linearGradient id="Безымянный_градиент_40-6" x1="31.17" y1="819.87" x2="31.17" y2="831.85" gradientTransform="matrix(1, 0, 0, -1, 0, 1066.28)" xlink:href="#Безымянный_градиент_40"/><linearGradient id="Безымянный_градиент_40-7" x1="-97.41" y1="822.78" x2="-97.41" y2="847.5" gradientTransform="translate(58.06 1066.28) rotate(180)" xlink:href="#Безымянный_градиент_40"/><linearGradient id="Безымянный_градиент_40-8" x1="-89.41" y1="819.87" x2="-89.41" y2="831.85" gradientTransform="translate(58.06 1066.28) rotate(180)" xlink:href="#Безымянный_градиент_40"/><linearGradient id="Безымянный_градиент_60" x1="90.95" y1="41.99" x2="90.95" y2="234.26" gradientUnits="userSpaceOnUse"><stop offset="0.03" stop-color="#ff153c"/><stop offset="0.05" stop-color="#f6153b"/><stop offset="0.22" stop-color="#b01830"/><stop offset="0.31" stop-color="#94192c"/><stop offset="0.33" stop-color="#881729"/><stop offset="0.44" stop-color="#5f101c"/><stop offset="0.54" stop-color="#3d0a12"/><stop offset="0.65" stop-color="#22060a"/><stop offset="0.76" stop-color="#0f0304"/><stop offset="0.88" stop-color="#040101"/><stop offset="1"/></linearGradient></defs><g id="Слой_2" data-name="Слой 2"><g id="Слой_1-2" data-name="Слой 1"><rect class="cls-1" x="0.5" y="0.5" width="178.1" height="267.54" rx="13.84"/><path class="cls-2" d="M159.73,39.21c-12,0-21.76-9-21.76-20.1,0-.36,0-.72,0-1.08a8.46,8.46,0,0,0-8.62-8.86H49.08A8.45,8.45,0,0,0,40.47,18q0,.54,0,1.08c0,11.1-9.74,20.1-21.76,20.1h-.63a8.55,8.55,0,0,0-9,8.3v160c0,4.68,4.07,8.32,9,8.3h.1c12,0,21.76,9,21.76,20.1,0,.36,0,.71,0,1.06-.27,4.76,3.9,8.69,8.93,8.69h79.66c5,0,9.21-3.93,8.94-8.69,0-.35,0-.7,0-1.06,0-11.1,9.74-20.1,21.76-20.1.34,0,.68,0,1,0a8.51,8.51,0,0,0,9-8.31v-160a8.57,8.57,0,0,0-9-8.31Z"/><path class="cls-3" d="M15.06,23.2s8.86,0,8.86-12.62c0,0,.12,13,8.39,13,0,0-8.36-.18-8.36,11.74C24,35.3,24.84,23.2,15.06,23.2Z"/><path class="cls-4" d="M27.51,13.79s4.29,0,4.29-6.12c0,0,.06,6.29,4.07,6.29,0,0-4-.08-4,5.69C31.82,19.65,32.25,13.79,27.51,13.79Z"/><path class="cls-5" d="M164.61,23.2s-8.85,0-8.85-12.62c0,0-.13,13-8.4,13,0,0,8.36-.18,8.36,11.74C155.72,35.3,154.83,23.2,164.61,23.2Z"/><path class="cls-6" d="M152.17,13.79s-4.29,0-4.29-6.12c0,0-.07,6.29-4.07,6.29,0,0,4.05-.08,4.05,5.69C147.86,19.65,147.43,13.79,152.17,13.79Z"/><path class="cls-7" d="M14.54,230.87s8.85,0,8.85,12.63c0,0,.13-13,8.4-13,0,0-8.36.18-8.36-11.73C23.43,218.78,24.32,230.87,14.54,230.87Z"/><path class="cls-8" d="M27,240.29s4.29,0,4.29,6.11c0,0,.06-6.29,4.06-6.29,0,0-4.05.09-4.05-5.68C31.29,234.43,31.73,240.29,27,240.29Z"/><path class="cls-9" d="M164.09,230.87s-8.85,0-8.85,12.63c0,0-.13-13-8.4-13,0,0,8.36.18,8.36-11.73C155.2,218.78,154.31,230.87,164.09,230.87Z"/><path class="cls-10" d="M151.65,240.29s-4.3,0-4.3,6.11c0,0-.06-6.29-4.06-6.29,0,0,4.05.09,4.05-5.68C147.34,234.43,146.91,240.29,151.65,240.29Z"/><path class="cls-11" d="M108.35,83.16s4-1.91,3.72-5.84a7.94,7.94,0,0,1-.3-4,3.71,3.71,0,0,0-2.59,2.09s-2.52,2-3.12,2.55a12.07,12.07,0,0,0-2.39-7.87s8.83-12.78,18.2-10.85a9.19,9.19,0,0,1,3.95,3.26c-3.79-.09-7.34.8-9,4.18,0,0-5.38,8.3,5.31,12.61,0,0,9.38,3.23,11.73-9a27.89,27.89,0,0,1,2.88,1.57s3.25,1.47,6.91-1.72c0,0,3-2.83,2.71-5.75a5.64,5.64,0,0,0,1.54-4.21,8.33,8.33,0,0,1-2,2.66,5.19,5.19,0,0,0-1.45-1.6s-4-1.79-4.91,2c0,0,.71,2.93,3.2,3a2.39,2.39,0,0,1-2.67,1.28,37.59,37.59,0,0,0-6-3.27c-.69-4.72-3.64-12.62-15.64-13.73,0,0-12.21-.93-15.67,4.65A13.35,13.35,0,0,0,101.41,42s2.2,9.9-6.64,19.92H87.15C78.31,51.89,80.51,42,80.51,42a13.35,13.35,0,0,0-1.33,13.15c-3.46-5.58-15.67-4.65-15.67-4.65-12,1.11-14.95,9-15.64,13.73a37.59,37.59,0,0,0-6,3.27,2.39,2.39,0,0,1-2.67-1.28c2.49,0,3.2-3,3.2-3-.93-3.78-4.91-2-4.91-2A5.19,5.19,0,0,0,36,62.85a8.33,8.33,0,0,1-2-2.66,5.64,5.64,0,0,0,1.54,4.21c-.25,2.92,2.71,5.75,2.71,5.75,3.66,3.19,6.91,1.72,6.91,1.72a27.89,27.89,0,0,1,2.88-1.57c2.35,12.24,11.73,9,11.73,9C70.48,75,65.1,66.7,65.1,66.7c-1.66-3.38-5.21-4.27-9-4.18a9.19,9.19,0,0,1,3.95-3.26c9.37-1.93,18.2,10.85,18.2,10.85A12.07,12.07,0,0,0,75.86,78c-.6-.59-3.12-2.55-3.12-2.55a3.71,3.71,0,0,0-2.59-2.09,8.07,8.07,0,0,1-.3,4c-.3,3.93,3.72,5.84,3.72,5.84l1.49,9.17c-3.48,15-16.43,25-27.57,31a33.31,33.31,0,0,0-17.42,29.59l11,52.18,49.56,29.17h.6l44.91-23.83,15.66-54.61a38.44,38.44,0,0,0-19.4-33.61c-10.65-6.07-22.3-15.72-25.57-29.88m20.85-22.71s-.27,5.84-4.78,4.65c0,0-4.85-3.26-.53-5.18a11.28,11.28,0,0,1,5.3-.55C127.72,68.89,127.72,69.24,127.71,69.62Zm-68.19-.53C63.84,71,59,74.27,59,74.27c-4.51,1.19-4.78-4.65-4.78-4.65,0-.38,0-.73,0-1.08A11.28,11.28,0,0,1,59.52,69.09Z"/><text class="cls-12" transform="translate(66.31 259.85)">ДЬЯВ<tspan class="cls-13" x="29.56" y="0">О</tspan><tspan x="38.24" y="0">Л</tspan></text></g></g></svg>