<svg xmlns="http://www.w3.org/2000/svg" xmlns:xlink="http://www.w3.org/1999/xlink" viewBox="0 0 179.1 268.54"><defs><style>.cls-1{fill:#fff;stroke:#1d1d1b;}.cls-1,.cls-2{stroke-miterlimit:10;}.cls-2{fill:#1d1d1b;stroke:#fff;}.cls-3{fill:url(#Безымянный_градиент_40);}.cls-4{fill:url(#Безымянный_градиент_40-2);}.cls-5{fill:url(#Безымянный_градиент_40-3);}.cls-6{fill:url(#Безымянный_градиент_40-4);}.cls-7{fill:url(#Безымянный_градиент_40-5);}.cls-8{fill:url(#Безымянный_градиент_40-6);}.cls-9{fill:url(#Безымянный_градиент_40-7);}.cls-10{fill:url(#Безымянный_градиент_40-8);}.cls-11{fill:url(#Безымянный_градиент_59);}.cls-12{fill:url(#Безымянный_градиент_53);}.cls-13{fill:url(#Безымянный_градиент_57);}.cls-14{fill:url(#Безымянный_градиент_56);}.cls-15{fill:url(#Безымянный_градиент_53-2);}.cls-16{fill:url(#Безымянный_градиент_51);}.cls-17{fill:url(#Безымянный_градиент_47);}.cls-18{fill:url(#Безымянный_градиент_11);}.cls-19{font-size:12px;fill:#2d2d2d;font-family:Cormorant-SemiBold, Cormorant;font-weight:600;}</style><linearGradient id="Безымянный_градиент_40" x1="23.68" y1="10.58" x2="23.68" y2="35.3" gradientUnits="userSpaceOnUse"><stop offset="0.02" stop-color="#00dbff"/><stop offset="0.18" stop-color="#00bddc"/><stop offset="0.53" stop-color="#006f82"/><stop offset="1"/></linearGradient><linearGradient id="Безымянный_градиент_40-2" x1="31.69" y1="7.67" x2="31.69" y2="19.65" xlink:href="#Безымянный_градиент_40"/><linearGradient id="Безымянный_градиент_40-3" x1="296.82" y1="10.58" x2="296.82" y2="35.3" gradientTransform="matrix(-1, 0, 0, 1, 452.81, 0)" xlink:href="#Безымянный_градиент_40"/><linearGradient id="Безымянный_градиент_40-4" x1="304.82" y1="7.67" x2="304.82" y2="19.65" gradientTransform="matrix(-1, 0, 0, 1, 452.81, 0)" xlink:href="#Безымянный_градиент_40"/><linearGradient id="Безымянный_градиент_40-5" x1="23.16" y1="263.77" x2="23.16" y2="288.49" gradientTransform="matrix(1, 0, 0, -1, 0, 507.26)" xlink:href="#Безымянный_градиент_40"/><linearGradient id="Безымянный_градиент_40-6" x1="31.17" y1="260.86" x2="31.17" y2="272.84" gradientTransform="matrix(1, 0, 0, -1, 0, 507.26)" xlink:href="#Безымянный_градиент_40"/><linearGradient id="Безымянный_градиент_40-7" x1="297.34" y1="263.77" x2="297.34" y2="288.49" gradientTransform="translate(452.81 507.26) rotate(180)" xlink:href="#Безымянный_градиент_40"/><linearGradient id="Безымянный_градиент_40-8" x1="305.34" y1="260.86" x2="305.34" y2="272.84" gradientTransform="translate(452.81 507.26) rotate(180)" xlink:href="#Безымянный_градиент_40"/><linearGradient id="Безымянный_градиент_59" x1="78.31" y1="221.73" x2="118.77" y2="181.27" gradientUnits="userSpaceOnUse"><stop offset="0.03" stop-color="#7de3ff"/><stop offset="0.18" stop-color="#63b3c9"/><stop offset="0.41" stop-color="#407483"/><stop offset="0.61" stop-color="#24424a"/><stop offset="0.78" stop-color="#111e22"/><stop offset="0.92" stop-color="#040809"/><stop offset="1"/></linearGradient><linearGradient id="Безымянный_градиент_53" x1="79.64" y1="197.3" x2="99.3" y2="163.25" gradientUnits="userSpaceOnUse"><stop offset="0.03" stop-color="#86ffc5"/><stop offset="1"/></linearGradient><linearGradient id="Безымянный_градиент_57" x1="110.03" y1="159.52" x2="68.91" y2="159.52" gradientUnits="userSpaceOnUse"><stop offset="0.03" stop-color="#d31736"/><stop offset="1"/></linearGradient><linearGradient id="Безымянный_градиент_56" x1="74.55" y1="126.89" x2="74.55" y2="148.56" gradientUnits="userSpaceOnUse"><stop offset="0.03" stop-color="#f1e471"/><stop offset="1"/></linearGradient><linearGradient id="Безымянный_градиент_53-2" x1="72.01" y1="116.08" x2="113.12" y2="116.08" xlink:href="#Безымянный_градиент_53"/><linearGradient id="Безымянный_градиент_51" x1="120.92" y1="78.81" x2="80.86" y2="107.48" gradientUnits="userSpaceOnUse"><stop offset="0.03" stop-color="#7de3ff"/><stop offset="1"/></linearGradient><linearGradient id="Безымянный_градиент_47" x1="66.77" y1="88.82" x2="98.17" y2="57.43" gradientUnits="userSpaceOnUse"><stop offset="0.03" stop-color="#f9dc62"/><stop offset="0.04" stop-color="#f2d65f"/><stop offset="0.25" stop-color="#aa9643"/><stop offset="0.45" stop-color="#6d612b"/><stop offset="0.63" stop-color="#3e3718"/><stop offset="0.79" stop-color="#1c190b"/><stop offset="0.91" stop-color="#080703"/><stop offset="1"/></linearGradient><linearGradient id="Безымянный_градиент_11" x1="58.95" y1="37.5" x2="86.52" y2="65.07" gradientUnits="userSpaceOnUse"><stop offset="0.03" stop-color="#ff153c"/><stop offset="0.04" stop-color="#fa153b"/><stop offset="0.2" stop-color="#b90f2b"/><stop offset="0.36" stop-color="#800b1e"/><stop offset="0.51" stop-color="#520713"/><stop offset="0.65" stop-color="#2f040b"/><stop offset="0.78" stop-color="#150205"/><stop offset="0.9" stop-color="#050001"/><stop offset="1"/></linearGradient></defs><g id="Слой_2" data-name="Слой 2"><g id="Слой_1-2" data-name="Слой 1"><rect class="cls-1" x="0.5" y="0.5" width="178.1" height="267.54" rx="13.84"/><path class="cls-2" d="M159.73,39.21c-12,0-21.76-9-21.76-20.1,0-.36,0-.72,0-1.08a8.46,8.46,0,0,0-8.62-8.86H49.08A8.45,8.45,0,0,0,40.47,18q0,.54,0,1.08c0,11.1-9.74,20.1-21.76,20.1h-.63a8.55,8.55,0,0,0-9,8.3v160c0,4.68,4.07,8.32,9,8.3h.1c12,0,21.76,9,21.76,20.1,0,.36,0,.71,0,1.06-.27,4.76,3.9,8.69,8.93,8.69h79.66c5,0,9.21-3.93,8.94-8.69,0-.35,0-.7,0-1.06,0-11.1,9.74-20.1,21.76-20.1.34,0,.68,0,1,0a8.51,8.51,0,0,0,9-8.31v-160a8.57,8.57,0,0,0-9-8.31Z"/><path class="cls-3" d="M15.06,23.2s8.86,0,8.86-12.62c0,0,.12,13,8.39,13,0,0-8.36-.18-8.36,11.74C24,35.3,24.84,23.2,15.06,23.2Z"/><path class="cls-4" d="M27.51,13.79s4.29,0,4.29-6.12c0,0,.06,6.29,4.07,6.29,0,0-4-.08-4,5.69C31.82,19.65,32.25,13.79,27.51,13.79Z"/><path class="cls-5" d="M164.61,23.2s-8.85,0-8.85-12.62c0,0-.13,13-8.4,13,0,0,8.36-.18,8.36,11.74C155.72,35.3,154.83,23.2,164.61,23.2Z"/><path class="cls-6" d="M152.17,13.79s-4.29,0-4.29-6.12c0,0-.07,6.29-4.07,6.29,0,0,4.05-.08,4.05,5.69C147.86,19.65,147.43,13.79,152.17,13.79Z"/><path class="cls-7" d="M14.54,230.87s8.85,0,8.85,12.63c0,0,.13-13,8.4-13,0,0-8.36.18-8.36-11.73C23.43,218.78,24.32,230.87,14.54,230.87Z"/><path class="cls-8" d="M27,240.29s4.29,0,4.29,6.11c0,0,.06-6.29,4.06-6.29,0,0-4.05.09-4.05-5.68C31.29,234.43,31.73,240.29,27,240.29Z"/><path class="cls-9" d="M164.09,230.87s-8.85,0-8.85,12.63c0,0-.13-13-8.4-13,0,0,8.36.18,8.36-11.73C155.2,218.78,154.31,230.87,164.09,230.87Z"/><path class="cls-10" d="M151.65,240.29s-4.3,0-4.3,6.11c0,0-.06-6.29-4.06-6.29,0,0,4.05.09,4.05-5.68C147.34,234.43,146.91,240.29,151.65,240.29Z"/><rect class="cls-11" x="68.91" y="190.67" width="59.26" height="21.67"/><rect class="cls-12" x="68.91" y="169.44" width="41.12" height="21.67"/><rect class="cls-13" x="68.91" y="148.69" width="41.12" height="21.67"/><rect class="cls-14" x="53.99" y="126.89" width="41.12" height="21.67"/><rect class="cls-15" x="72.01" y="105.24" width="41.12" height="21.67"/><rect class="cls-16" x="78.27" y="83.79" width="41.12" height="21.67"/><rect class="cls-17" x="61.91" y="62.29" width="41.12" height="21.67"/><rect class="cls-18" x="56" y="40.45" width="33.48" height="21.67"/><text class="cls-19" transform="translate(63.63 260.1)">БАШНЯ</text></g></g></svg>