<svg xmlns="http://www.w3.org/2000/svg" xmlns:xlink="http://www.w3.org/1999/xlink" viewBox="0 0 179.1 268.54"><defs><style>.cls-1,.cls-12{fill:#fff;}.cls-1{stroke:#1d1d1b;}.cls-1,.cls-2{stroke-miterlimit:10;}.cls-2{fill:#1d1d1b;stroke:#fff;}.cls-3{fill:url(#Безымянный_градиент_40);}.cls-4{fill:url(#Безымянный_градиент_40-2);}.cls-5{fill:url(#Безымянный_градиент_40-3);}.cls-6{fill:url(#Безымянный_градиент_40-4);}.cls-7{fill:url(#Безымянный_градиент_40-5);}.cls-8{fill:url(#Безымянный_градиент_40-6);}.cls-9{fill:url(#Безымянный_градиент_40-7);}.cls-10{fill:url(#Безымянный_градиент_40-8);}.cls-11{fill:#545454;}.cls-13{fill:url(#Безымянный_градиент_61);}.cls-14{font-size:12px;fill:#2d2d2d;font-family:Cormorant-SemiBold, Cormorant;font-weight:600;}</style><linearGradient id="Безымянный_градиент_40" x1="23.68" y1="10.58" x2="23.68" y2="35.3" gradientUnits="userSpaceOnUse"><stop offset="0.02" stop-color="#00dbff"/><stop offset="0.18" stop-color="#00bddc"/><stop offset="0.53" stop-color="#006f82"/><stop offset="1"/></linearGradient><linearGradient id="Безымянный_градиент_40-2" x1="31.69" y1="7.67" x2="31.69" y2="19.65" xlink:href="#Безымянный_градиент_40"/><linearGradient id="Безымянный_градиент_40-3" x1="294.41" y1="10.58" x2="294.41" y2="35.3" gradientTransform="matrix(-1, 0, 0, 1, 450.4, 0)" xlink:href="#Безымянный_градиент_40"/><linearGradient id="Безымянный_градиент_40-4" x1="302.42" y1="7.67" x2="302.42" y2="19.65" gradientTransform="matrix(-1, 0, 0, 1, 450.4, 0)" xlink:href="#Безымянный_градиент_40"/><linearGradient id="Безымянный_градиент_40-5" x1="23.16" y1="823.58" x2="23.16" y2="848.3" gradientTransform="matrix(1, 0, 0, -1, 0, 1067.08)" xlink:href="#Безымянный_градиент_40"/><linearGradient id="Безымянный_градиент_40-6" x1="31.17" y1="820.67" x2="31.17" y2="832.65" gradientTransform="matrix(1, 0, 0, -1, 0, 1067.08)" xlink:href="#Безымянный_градиент_40"/><linearGradient id="Безымянный_градиент_40-7" x1="294.94" y1="823.58" x2="294.94" y2="848.3" gradientTransform="translate(450.4 1067.08) rotate(180)" xlink:href="#Безымянный_градиент_40"/><linearGradient id="Безымянный_градиент_40-8" x1="302.94" y1="820.67" x2="302.94" y2="832.65" gradientTransform="translate(450.4 1067.08) rotate(180)" xlink:href="#Безымянный_градиент_40"/><linearGradient id="Безымянный_градиент_61" x1="89.93" y1="63.83" x2="89.93" y2="191.25" gradientUnits="userSpaceOnUse"><stop offset="0" stop-color="#86ffc5"/><stop offset="0.27" stop-color="#84fad0"/><stop offset="0.75" stop-color="#80eced"/><stop offset="1" stop-color="#7de3ff"/></linearGradient></defs><g id="Слой_2" data-name="Слой 2"><g id="Слой_1-2" data-name="Слой 1"><rect class="cls-1" x="0.5" y="0.5" width="178.1" height="267.54" rx="13.84"/><path class="cls-2" d="M159.45,38.79c-12,0-21.76-9-21.76-20.1q0-.54,0-1.08a8.45,8.45,0,0,0-8.61-8.86H48.8a8.47,8.47,0,0,0-8.62,8.86c0,.36,0,.72,0,1.08,0,11.1-9.74,20.1-21.76,20.1h-.64a8.55,8.55,0,0,0-9,8.3v160c0,4.68,4.08,8.32,9,8.3h.1c12,0,21.75,9,21.75,20.1,0,.35,0,.71,0,1-.27,4.76,3.91,8.7,8.94,8.7h79.66c5,0,9.21-3.94,8.94-8.7,0-.34,0-.7,0-1,0-11.1,9.74-20.1,21.75-20.1l1,0a8.5,8.5,0,0,0,9-8.3v-160a8.58,8.58,0,0,0-9-8.3Z"/><path class="cls-3" d="M15.06,23.2s8.86,0,8.86-12.62c0,0,.12,13,8.39,13,0,0-8.36-.18-8.36,11.74C24,35.3,24.84,23.2,15.06,23.2Z"/><path class="cls-4" d="M27.51,13.79s4.29,0,4.29-6.12c0,0,.06,6.29,4.07,6.29,0,0-4-.08-4,5.69C31.82,19.65,32.25,13.79,27.51,13.79Z"/><path class="cls-5" d="M164.61,23.2s-8.85,0-8.85-12.62c0,0-.13,13-8.4,13,0,0,8.36-.18,8.36,11.74C155.72,35.3,154.83,23.2,164.61,23.2Z"/><path class="cls-6" d="M152.17,13.79s-4.29,0-4.29-6.12c0,0-.07,6.29-4.07,6.29,0,0,4.05-.08,4.05,5.69C147.86,19.65,147.43,13.79,152.17,13.79Z"/><path class="cls-7" d="M14.54,230.87s8.85,0,8.85,12.63c0,0,.13-13,8.4-13,0,0-8.36.18-8.36-11.73C23.43,218.78,24.32,230.87,14.54,230.87Z"/><path class="cls-8" d="M27,240.29s4.29,0,4.29,6.11c0,0,.06-6.29,4.06-6.29,0,0-4.05.09-4.05-5.68C31.29,234.43,31.73,240.29,27,240.29Z"/><path class="cls-9" d="M164.09,230.87s-8.85,0-8.85,12.63c0,0-.13-13-8.4-13,0,0,8.36.18,8.36-11.73C155.2,218.78,154.31,230.87,164.09,230.87Z"/><path class="cls-10" d="M151.65,240.29s-4.3,0-4.3,6.11c0,0-.06-6.29-4.06-6.29,0,0,4.05.09,4.05-5.68C147.34,234.43,146.91,240.29,151.65,240.29Z"/><rect class="cls-11" x="46.12" y="49.6" width="87.07" height="5.11"/><rect class="cls-11" x="46.48" y="199.65" width="87.07" height="5.11"/><path class="cls-12" d="M105.27,113.13c23.55-26.84,21.91-57.69,21.91-57.69H52.61S51,86.29,74.52,113.13c0,0,12.41,13.5-.73,29.93,0,0-21.36,25.92-20.81,56.23h73.83C127.36,169,106,143.06,106,143.06,92.86,126.63,105.27,113.13,105.27,113.13Z"/><path class="cls-13" d="M90.48,170.07V119a26.42,26.42,0,0,1,9.11-17.36,43.5,43.5,0,0,0,4.63-4.47l.25-.27a75.58,75.58,0,0,0,9.31-13.49,44.9,44.9,0,0,0,5.54-17.7S95.86,57,62.36,77.35a38.92,38.92,0,0,0,2.28,5.83A63.35,63.35,0,0,0,80,103.45l.62.55s6.93,4.56,7.3,15.33v51.12s-9.9,1.61-16.09,10.07A44.11,44.11,0,0,1,69,184a38.59,38.59,0,0,1-5.59,5.25c-.91.69-1.88,1.37-2.91,2h55.85a34.35,34.35,0,0,0-6.61-10.13A36.62,36.62,0,0,0,90.48,170.07Z"/><text class="cls-14" transform="translate(70.37 259.62)">ВРЕМЯ</text></g></g></svg>