<svg xmlns="http://www.w3.org/2000/svg" xmlns:xlink="http://www.w3.org/1999/xlink" viewBox="0 0 179.1 268.54"><defs><style>.cls-1{fill:#fff;stroke:#1d1d1b;}.cls-1,.cls-2{stroke-miterlimit:10;}.cls-2{fill:#1d1d1b;stroke:#fff;}.cls-3{fill:url(#Безымянный_градиент_40);}.cls-4{fill:url(#Безымянный_градиент_40-2);}.cls-5{fill:url(#Безымянный_градиент_40-3);}.cls-6{fill:url(#Безымянный_градиент_40-4);}.cls-7{fill:url(#Безымянный_градиент_40-5);}.cls-8{fill:url(#Безымянный_градиент_40-6);}.cls-9{fill:url(#Безымянный_градиент_40-7);}.cls-10{fill:url(#Безымянный_градиент_40-8);}.cls-11{fill:url(#Безымянный_градиент_24);}.cls-12{fill:url(#Безымянный_градиент_25);}.cls-13{font-size:12px;fill:#2d2d2d;font-family:Cormorant-SemiBold, Cormorant;font-weight:600;}</style><linearGradient id="Безымянный_градиент_40" x1="23.68" y1="10.58" x2="23.68" y2="35.3" gradientUnits="userSpaceOnUse"><stop offset="0.02" stop-color="#00dbff"/><stop offset="0.18" stop-color="#00bddc"/><stop offset="0.53" stop-color="#006f82"/><stop offset="1"/></linearGradient><linearGradient id="Безымянный_градиент_40-2" x1="31.69" y1="7.67" x2="31.69" y2="19.65" xlink:href="#Безымянный_градиент_40"/><linearGradient id="Безымянный_градиент_40-3" x1="1073.29" y1="10.58" x2="1073.29" y2="35.3" gradientTransform="matrix(-1, 0, 0, 1, 1229.28, 0)" xlink:href="#Безымянный_градиент_40"/><linearGradient id="Безымянный_градиент_40-4" x1="1081.29" y1="7.67" x2="1081.29" y2="19.65" gradientTransform="matrix(-1, 0, 0, 1, 1229.28, 0)" xlink:href="#Безымянный_градиент_40"/><linearGradient id="Безымянный_градиент_40-5" x1="23.16" y1="251.1" x2="23.16" y2="275.82" gradientTransform="matrix(1, 0, 0, -1, 0, 494.6)" xlink:href="#Безымянный_градиент_40"/><linearGradient id="Безымянный_градиент_40-6" x1="31.17" y1="248.2" x2="31.17" y2="260.17" gradientTransform="matrix(1, 0, 0, -1, 0, 494.6)" xlink:href="#Безымянный_градиент_40"/><linearGradient id="Безымянный_градиент_40-7" x1="1073.81" y1="251.1" x2="1073.81" y2="275.82" gradientTransform="translate(1229.28 494.6) rotate(180)" xlink:href="#Безымянный_градиент_40"/><linearGradient id="Безымянный_градиент_40-8" x1="1081.81" y1="248.2" x2="1081.81" y2="260.17" gradientTransform="translate(1229.28 494.6) rotate(180)" xlink:href="#Безымянный_градиент_40"/><linearGradient id="Безымянный_градиент_24" x1="93.67" y1="109.59" x2="166.86" y2="109.59" gradientUnits="userSpaceOnUse"><stop offset="0.03" stop-color="#ff3767"/><stop offset="0.19" stop-color="#c52b50"/><stop offset="0.41" stop-color="#801c34"/><stop offset="0.61" stop-color="#49101d"/><stop offset="0.78" stop-color="#21070d"/><stop offset="0.92" stop-color="#090204"/><stop offset="1"/></linearGradient><linearGradient id="Безымянный_градиент_25" x1="104.96" y1="112.78" x2="10.01" y2="112.78" gradientUnits="userSpaceOnUse"><stop offset="0.03" stop-color="#4d4ae9"/><stop offset="0.13" stop-color="#3d3ab8"/><stop offset="0.24" stop-color="#2d2b87"/><stop offset="0.36" stop-color="#1f1e5e"/><stop offset="0.48" stop-color="#14133c"/><stop offset="0.61" stop-color="#0b0b22"/><stop offset="0.73" stop-color="#05050f"/><stop offset="0.86" stop-color="#010104"/><stop offset="1"/></linearGradient></defs><g id="Слой_2" data-name="Слой 2"><g id="Слой_1-2" data-name="Слой 1"><rect class="cls-1" x="0.5" y="0.5" width="178.1" height="267.54" rx="13.84"/><path class="cls-2" d="M159.73,39.21c-12,0-21.76-9-21.76-20.1,0-.36,0-.72,0-1.08a8.46,8.46,0,0,0-8.62-8.86H49.08A8.45,8.45,0,0,0,40.47,18q0,.54,0,1.08c0,11.1-9.74,20.1-21.76,20.1h-.63a8.55,8.55,0,0,0-9,8.3v160c0,4.68,4.07,8.32,9,8.3h.1c12,0,21.76,9,21.76,20.1,0,.36,0,.71,0,1.06-.27,4.76,3.9,8.69,8.93,8.69h79.66c5,0,9.21-3.93,8.94-8.69,0-.35,0-.7,0-1.06,0-11.1,9.74-20.1,21.76-20.1.34,0,.68,0,1,0a8.51,8.51,0,0,0,9-8.31v-160a8.57,8.57,0,0,0-9-8.31Z"/><path class="cls-3" d="M15.06,23.2s8.86,0,8.86-12.62c0,0,.12,13,8.39,13,0,0-8.36-.18-8.36,11.74C24,35.3,24.84,23.2,15.06,23.2Z"/><path class="cls-4" d="M27.51,13.79s4.29,0,4.29-6.12c0,0,.06,6.29,4.07,6.29,0,0-4-.08-4,5.69C31.82,19.65,32.25,13.79,27.51,13.79Z"/><path class="cls-5" d="M164.61,23.2s-8.85,0-8.85-12.62c0,0-.13,13-8.4,13,0,0,8.36-.18,8.36,11.74C155.72,35.3,154.83,23.2,164.61,23.2Z"/><path class="cls-6" d="M152.17,13.79s-4.29,0-4.29-6.12c0,0-.07,6.29-4.07,6.29,0,0,4.05-.08,4.05,5.69C147.86,19.65,147.43,13.79,152.17,13.79Z"/><path class="cls-7" d="M14.54,230.87s8.85,0,8.85,12.63c0,0,.13-13,8.4-13,0,0-8.36.18-8.36-11.73C23.43,218.78,24.32,230.87,14.54,230.87Z"/><path class="cls-8" d="M27,240.29s4.29,0,4.29,6.11c0,0,.06-6.29,4.06-6.29,0,0-4.05.09-4.05-5.68C31.29,234.43,31.73,240.29,27,240.29Z"/><path class="cls-9" d="M164.09,230.87s-8.85,0-8.85,12.63c0,0-.13-13-8.4-13,0,0,8.36.18,8.36-11.73C155.2,218.78,154.31,230.87,164.09,230.87Z"/><path class="cls-10" d="M151.65,240.29s-4.3,0-4.3,6.11c0,0-.06-6.29-4.06-6.29,0,0,4.05.09,4.05-5.68C147.34,234.43,146.91,240.29,151.65,240.29Z"/><path class="cls-11" d="M168.47,202.14V48.19A8.47,8.47,0,0,0,159.59,40h-.5C147.24,40,137.62,31,137.62,20c0-.36,0-.72,0-1.07a8.36,8.36,0,0,0-8.5-8.79H114.84c-6.31,4.9-30.6,25.24-13.64,36.16,0,0-10.76,21.35-3.23,51.24,0,0,14.71,15.89.72,39,0,0-9,10.08,3.23,14.35,0,0,10.23,1.88,7.89,8.2,0,0-1.07,7.86,9.33,7.51,0,0,10.77,1.54,4,5.47,0,0-13.81,6.83-4,13,0,0,8.08-2.05,6.82,3.42,0,0-3.77,23.91,19.38,20.16Z"/><path class="cls-12" d="M93.29,99.69a14.06,14.06,0,0,1,1.31-12l2.13-3.48c2.83-11.92-8.07-46.12-8.07-46.12,18.17-6.54,2.42-27.68,2.42-27.68l-42.6-.14A8.34,8.34,0,0,0,41,19c0,.35,0,.71,0,1.07C41,31,31.38,40,19.52,40H18.9A8.47,8.47,0,0,0,10,48.19V206.88c0,4.64,4,8.25,8.9,8.23H19a23.51,23.51,0,0,1,3.16.22c.91-1.67,1.82-3.38,2.7-5.1,7.67-15,15.35-11.53,37.15-7.69S82.2,185.63,82.2,185.63c-4.44-8.45,3.23-13.07,3.23-13.07,6.86-4.22,1.62-9.22,1.62-9.22l4.84-6.15-.49-5.09a5.32,5.32,0,0,1,2.73-5.1l5-2.88c7.26-2.69,5.65-11.53,5.65-11.53Z"/><text class="cls-13" transform="translate(47.02 260.16)">ВЛЮБЛЁННЫЕ</text></g></g></svg>