<svg xmlns="http://www.w3.org/2000/svg" xmlns:xlink="http://www.w3.org/1999/xlink" viewBox="0 0 179.1 268.54"><defs><style>.cls-1{fill:#fff;stroke:#1d1d1b;}.cls-1,.cls-2{stroke-miterlimit:10;}.cls-2{fill:#1d1d1b;stroke:#fff;}.cls-3{fill:url(#Безымянный_градиент_40);}.cls-4{fill:url(#Безымянный_градиент_40-2);}.cls-5{fill:url(#Безымянный_градиент_40-3);}.cls-6{fill:url(#Безымянный_градиент_40-4);}.cls-7{fill:url(#Безымянный_градиент_40-5);}.cls-8{fill:url(#Безымянный_градиент_40-6);}.cls-9{fill:url(#Безымянный_градиент_40-7);}.cls-10{fill:url(#Безымянный_градиент_40-8);}.cls-11{fill:url(#Безымянный_градиент_10);}.cls-12{font-size:12px;fill:#2d2d2d;font-family:Cormorant-SemiBold, Cormorant;font-weight:600;}</style><linearGradient id="Безымянный_градиент_40" x1="23.68" y1="10.58" x2="23.68" y2="35.3" gradientUnits="userSpaceOnUse"><stop offset="0.02" stop-color="#00dbff"/><stop offset="0.18" stop-color="#00bddc"/><stop offset="0.53" stop-color="#006f82"/><stop offset="1"/></linearGradient><linearGradient id="Безымянный_градиент_40-2" x1="31.69" y1="7.67" x2="31.69" y2="19.65" xlink:href="#Безымянный_градиент_40"/><linearGradient id="Безымянный_градиент_40-3" x1="1074.88" y1="10.58" x2="1074.88" y2="35.3" gradientTransform="matrix(-1, 0, 0, 1, 1230.87, 0)" xlink:href="#Безымянный_градиент_40"/><linearGradient id="Безымянный_градиент_40-4" x1="1082.89" y1="7.67" x2="1082.89" y2="19.65" gradientTransform="matrix(-1, 0, 0, 1, 1230.87, 0)" xlink:href="#Безымянный_градиент_40"/><linearGradient id="Безымянный_градиент_40-5" x1="23.16" y1="822.78" x2="23.16" y2="847.5" gradientTransform="matrix(1, 0, 0, -1, 0, 1066.28)" xlink:href="#Безымянный_градиент_40"/><linearGradient id="Безымянный_градиент_40-6" x1="31.17" y1="819.87" x2="31.17" y2="831.85" gradientTransform="matrix(1, 0, 0, -1, 0, 1066.28)" xlink:href="#Безымянный_градиент_40"/><linearGradient id="Безымянный_градиент_40-7" x1="1075.41" y1="822.78" x2="1075.41" y2="847.5" gradientTransform="translate(1230.87 1066.28) rotate(180)" xlink:href="#Безымянный_градиент_40"/><linearGradient id="Безымянный_градиент_40-8" x1="1083.41" y1="819.87" x2="1083.41" y2="831.85" gradientTransform="translate(1230.87 1066.28) rotate(180)" xlink:href="#Безымянный_градиент_40"/><linearGradient id="Безымянный_градиент_10" x1="46.76" y1="82" x2="134.38" y2="169.63" gradientUnits="userSpaceOnUse"><stop offset="0.03" stop-color="#f9dc62"/><stop offset="0.18" stop-color="#bba54a"/><stop offset="0.34" stop-color="#837333"/><stop offset="0.5" stop-color="#544a21"/><stop offset="0.64" stop-color="#2f2a13"/><stop offset="0.78" stop-color="#151308"/><stop offset="0.9" stop-color="#060502"/><stop offset="1"/></linearGradient></defs><g id="Слой_2" data-name="Слой 2"><g id="Слой_1-2" data-name="Слой 1"><rect class="cls-1" x="0.5" y="0.5" width="178.1" height="267.54" rx="13.84"/><path class="cls-2" d="M159.73,39.21c-12,0-21.76-9-21.76-20.1,0-.36,0-.72,0-1.08a8.46,8.46,0,0,0-8.62-8.86H49.08A8.45,8.45,0,0,0,40.47,18q0,.54,0,1.08c0,11.1-9.74,20.1-21.76,20.1h-.63a8.55,8.55,0,0,0-9,8.3v160c0,4.68,4.07,8.32,9,8.3h.1c12,0,21.76,9,21.76,20.1,0,.36,0,.71,0,1.06-.27,4.76,3.9,8.69,8.93,8.69h79.66c5,0,9.21-3.93,8.94-8.69,0-.35,0-.7,0-1.06,0-11.1,9.74-20.1,21.76-20.1.34,0,.68,0,1,0a8.51,8.51,0,0,0,9-8.31v-160a8.57,8.57,0,0,0-9-8.31Z"/><path class="cls-3" d="M15.06,23.2s8.86,0,8.86-12.62c0,0,.12,13,8.39,13,0,0-8.36-.18-8.36,11.74C24,35.3,24.84,23.2,15.06,23.2Z"/><path class="cls-4" d="M27.51,13.79s4.29,0,4.29-6.12c0,0,.06,6.29,4.07,6.29,0,0-4-.08-4,5.69C31.82,19.65,32.25,13.79,27.51,13.79Z"/><path class="cls-5" d="M164.61,23.2s-8.85,0-8.85-12.62c0,0-.13,13-8.4,13,0,0,8.36-.18,8.36,11.74C155.72,35.3,154.83,23.2,164.61,23.2Z"/><path class="cls-6" d="M152.17,13.79s-4.29,0-4.29-6.12c0,0-.07,6.29-4.07,6.29,0,0,4.05-.08,4.05,5.69C147.86,19.65,147.43,13.79,152.17,13.79Z"/><path class="cls-7" d="M14.54,230.87s8.85,0,8.85,12.63c0,0,.13-13,8.4-13,0,0-8.36.18-8.36-11.73C23.43,218.78,24.32,230.87,14.54,230.87Z"/><path class="cls-8" d="M27,240.29s4.29,0,4.29,6.11c0,0,.06-6.29,4.06-6.29,0,0-4.05.09-4.05-5.68C31.29,234.43,31.73,240.29,27,240.29Z"/><path class="cls-9" d="M164.09,230.87s-8.85,0-8.85,12.63c0,0-.13-13-8.4-13,0,0,8.36.18,8.36-11.73C155.2,218.78,154.31,230.87,164.09,230.87Z"/><path class="cls-10" d="M151.65,240.29s-4.3,0-4.3,6.11c0,0-.06-6.29-4.06-6.29,0,0,4.05.09,4.05-5.68C147.34,234.43,146.91,240.29,151.65,240.29Z"/><polygon class="cls-11" points="127.99 134.58 152.54 125.89 119.2 113.99 134.43 82.06 102.46 97.2 90.64 63.85 81.87 88.44 78.75 97.19 46.8 81.96 61.97 113.93 54.96 116.41 28.61 125.75 61.95 137.64 46.72 169.59 78.69 154.42 87.21 178.51 90.5 187.77 102.4 154.44 134.33 169.69 119.19 137.7 127.99 134.58"/><text class="cls-12" transform="translate(67.75 259.85)">ЗВЕЗДА</text></g></g></svg>