<svg xmlns="http://www.w3.org/2000/svg" xmlns:xlink="http://www.w3.org/1999/xlink" viewBox="0 0 179.1 268.54"><defs><style>.cls-1{fill:#fff;stroke:#1d1d1b;}.cls-1,.cls-2{stroke-miterlimit:10;}.cls-2{fill:#1d1d1b;stroke:#fff;}.cls-3{fill:url(#Безымянный_градиент_40);}.cls-4{fill:url(#Безымянный_градиент_40-2);}.cls-5{fill:url(#Безымянный_градиент_40-3);}.cls-6{fill:url(#Безымянный_градиент_40-4);}.cls-7{fill:url(#Безымянный_градиент_40-5);}.cls-8{fill:url(#Безымянный_градиент_40-6);}.cls-9{fill:url(#Безымянный_градиент_40-7);}.cls-10{fill:url(#Безымянный_градиент_40-8);}.cls-11{fill:url(#Безымянный_градиент_30);}.cls-12{font-size:12px;fill:#2d2d2d;font-family:Cormorant-SemiBold, Cormorant;font-weight:600;}.cls-13{letter-spacing:-0.04em;}</style><linearGradient id="Безымянный_градиент_40" x1="23.68" y1="10.58" x2="23.68" y2="35.3" gradientUnits="userSpaceOnUse"><stop offset="0.02" stop-color="#00dbff"/><stop offset="0.18" stop-color="#00bddc"/><stop offset="0.53" stop-color="#006f82"/><stop offset="1"/></linearGradient><linearGradient id="Безымянный_градиент_40-2" x1="31.69" y1="7.67" x2="31.69" y2="19.65" xlink:href="#Безымянный_градиент_40"/><linearGradient id="Безымянный_градиент_40-3" x1="689.75" y1="10.58" x2="689.75" y2="35.3" gradientTransform="matrix(-1, 0, 0, 1, 845.74, 0)" xlink:href="#Безымянный_градиент_40"/><linearGradient id="Безымянный_градиент_40-4" x1="697.76" y1="7.67" x2="697.76" y2="19.65" gradientTransform="matrix(-1, 0, 0, 1, 845.74, 0)" xlink:href="#Безымянный_градиент_40"/><linearGradient id="Безымянный_градиент_40-5" x1="23.16" y1="252.32" x2="23.16" y2="277.04" gradientTransform="matrix(1, 0, 0, -1, 0, 495.82)" xlink:href="#Безымянный_градиент_40"/><linearGradient id="Безымянный_градиент_40-6" x1="31.17" y1="249.41" x2="31.17" y2="261.39" gradientTransform="matrix(1, 0, 0, -1, 0, 495.82)" xlink:href="#Безымянный_градиент_40"/><linearGradient id="Безымянный_градиент_40-7" x1="690.27" y1="252.32" x2="690.27" y2="277.04" gradientTransform="translate(845.74 495.82) rotate(180)" xlink:href="#Безымянный_градиент_40"/><linearGradient id="Безымянный_градиент_40-8" x1="698.28" y1="249.41" x2="698.28" y2="261.39" gradientTransform="translate(845.74 495.82) rotate(180)" xlink:href="#Безымянный_градиент_40"/><linearGradient id="Безымянный_градиент_30" x1="89.45" y1="9.11" x2="89.45" y2="245.13" gradientUnits="userSpaceOnUse"><stop offset="0" stop-color="#faec75"/><stop offset="0.29" stop-color="#a39a4c"/><stop offset="0.54" stop-color="#5d582c"/><stop offset="0.75" stop-color="#2b2814"/><stop offset="0.91" stop-color="#0c0b05"/><stop offset="1"/></linearGradient></defs><g id="Слой_2" data-name="Слой 2"><g id="Слой_1-2" data-name="Слой 1"><rect class="cls-1" x="0.5" y="0.5" width="178.1" height="267.54" rx="13.84"/><path class="cls-2" d="M159.73,39.21c-31.78-2.9-13.54-29.44-30.34-30H49.08A8.45,8.45,0,0,0,40.47,18c.72,11.77-9.79,21.56-22.36,21.17a8.55,8.55,0,0,0-9,8.3v160c.68,15.42,28.41.44,30.86,28.4a8.7,8.7,0,0,0,8.91,9.75h79.66c5,0,9.21-3.93,8.94-8.69-.73-11.89,10.09-21.75,22.74-21.13a8.51,8.51,0,0,0,9-8.31v-160C169.25,42.64,164.8,38.86,159.73,39.21Z"/><path class="cls-3" d="M15.06,23.2s8.86,0,8.86-12.62c0,0,.12,13,8.39,13,0,0-8.36-.18-8.36,11.74C24,35.3,24.84,23.2,15.06,23.2Z"/><path class="cls-4" d="M27.51,13.79s4.29,0,4.29-6.12c0,0,.06,6.29,4.07,6.29,0,0-4-.08-4,5.69C31.82,19.65,32.25,13.79,27.51,13.79Z"/><path class="cls-5" d="M164.61,23.2s-8.85,0-8.85-12.62c0,0-.13,13-8.4,13,0,0,8.36-.18,8.36,11.74C155.72,35.3,154.83,23.2,164.61,23.2Z"/><path class="cls-6" d="M152.17,13.79s-4.29,0-4.29-6.12c0,0-.07,6.29-4.07,6.29,0,0,4.05-.08,4.05,5.69C147.86,19.65,147.43,13.79,152.17,13.79Z"/><path class="cls-7" d="M14.54,230.87s8.85,0,8.85,12.63c0,0,.13-13,8.4-13,0,0-8.36.18-8.36-11.73C23.43,218.78,24.32,230.87,14.54,230.87Z"/><path class="cls-8" d="M27,240.29s4.29,0,4.29,6.11c0,0,.06-6.29,4.06-6.29,0,0-4.05.09-4.05-5.68C31.29,234.43,31.73,240.29,27,240.29Z"/><path class="cls-9" d="M164.09,230.87s-8.85,0-8.85,12.63c0,0-.13-13-8.4-13,0,0,8.36.18,8.36-11.73C155.2,218.78,154.31,230.87,164.09,230.87Z"/><path class="cls-10" d="M151.65,240.29s-4.3,0-4.3,6.11c0,0-.06-6.29-4.06-6.29,0,0,4.05.09,4.05-5.68C147.34,234.43,146.91,240.29,151.65,240.29Z"/><path class="cls-11" d="M162.16,211s-8.35-14.55-15.9-17.76c0,0-8.35-5.29-10.73-14.74,0,0-3.38-8.31-14.31-15.11,0,0-5.1-1.54-9.1-8.25a37.87,37.87,0,0,0,6.19-5.51c9.87,7.39,38.18,29.37,50.78,39.17V168.55l-47.62-22.92a35.65,35.65,0,0,0,4.1-8.1c10.92-1.18,7.42,11.73,24.85,12a21.15,21.15,0,0,1,18.67,4.62V142.82c-17.11-8.59-19.92,4.54-32.61-7.82,0,0-2.82-3.13-9.34-3.6a35.21,35.21,0,0,0,.43-5.26l41.52,4.44V117.52l-42,2.73a34.72,34.72,0,0,0-2.51-8.46c4-2,10.52-2.41,10.52-2.41,19.46,5,21.38-7.26,34-6v-14a26.73,26.73,0,0,0-14.48,8c-13.72,10.56-23.05-1.43-32,10.71a37.14,37.14,0,0,0-4.59-6.15l51-27.84c0-3.06.06-25.47-.09-27.89L113.21,97.41a38.58,38.58,0,0,0-7.59-4.53c4.79-7.83,8.93-6,13-11.39a20.29,20.29,0,0,0,4.16-9.39c3.3-19,16.25-30.59,24.83-36.37a20.11,20.11,0,0,1-9.1-12.23c-32.67,23-14.72,32.94-29.4,55.4-6.92,4.41-8.14,9.6-8.28,12.19a40,40,0,0,0-9.17-1.65L99.32,9.11H75.86l7.86,80.61a40,40,0,0,0-7.47,1.75c.14-6-9.85-12.69-9.9-19.7.06-22.9,3.86-39.4-25.74-48.77a19.62,19.62,0,0,1-5.7,10C67.74,56.46,39.36,72.25,63,86.36a16.68,16.68,0,0,1,8.41,7.1A38.71,38.71,0,0,0,66,96.7L9.8,45.51v23.3l50.52,32.93A36.79,36.79,0,0,0,57,105.88c-8.94-8.72-16.58-4.07-24.45-11.26C26.41,88.14,18.72,83.12,9.8,81.28V94.9c7.19-.93,14.45,1,19.08,6.75,8.27,7.42,14.07,1.59,24.44,11a34.65,34.65,0,0,0-2,6.92L9.8,116.85v13L50.72,126a34.13,34.13,0,0,0,.43,5.37c-7.33.15-10.47,3.65-10.47,3.65-12.46,12.07-15.43-.06-30.88,7.07v10.72a21.3,21.3,0,0,1,16.94-3.25c19.39.23,13.36-14.71,26.06-11.81a35.5,35.5,0,0,0,3,6.34l-46,24.27v17.37l49.46-36.88A38,38,0,0,0,63.41,153a31,31,0,0,0-6.07,8.1c-4.41,9.55-18.48,6-21.09,17.4-2.32,8-13.08,7.72-16.3,14.84-2.36,4.33-5,12.57-10.1,14.5a8.64,8.64,0,0,0,8.73,7.49,19.61,19.61,0,0,0,4.22-6.39c5.63-19.5,12.42-8.75,20.26-21.82,5.12-13.18,11.43-8.92,16.65-17.35,1.94-4.87,5.16-9.69,9.64-12.58a39.09,39.09,0,0,0,4.92,2.37L32.89,220.13c10.81,7.5,4.18,17.34,11,23.24l36.91-81.84a39.21,39.21,0,0,0,4.51.69c-8.88,23.71,6.57,33.65-1.89,49.55-4.82,7.21,7.49,23.59,1.9,33.36H103c5.1-18.33-11.22-18.3-5.65-35.62,8.2-21.63-10.48-20.68-5.19-47.23a39,39,0,0,0,4.47-.58L134.53,243c5.51-5.3,1.11-14.8,8-20.53l-40.64-62.16a40,40,0,0,0,6.83-3c1.82,13.89,17.16,7.17,22.4,27.66,2.78,18.82,14.69,12,24.49,30.65,3.11-.56,6.84.37,9.53-1.57Q163.69,212.7,162.16,211Z"/><text class="cls-12" transform="translate(64.25 260.33)">С<tspan class="cls-13" x="8.03" y="0">О</tspan><tspan x="16.72" y="0">ЛНЦЕ</tspan></text></g></g></svg>