<svg width="605" height="237" viewBox="0 0 605 237" fill="none" xmlns="http://www.w3.org/2000/svg">
<path d="M385.354 1.3694H401.383L416.188 61.4899H416.5V1.66136C417.957 1.20806 430.425 1.10049 432.701 1.48465V116.616H418.292C412.76 95.0216 407.224 73.4218 401.687 51.8168L401.328 51.8783V116.708H385.354V1.3694Z" fill="white"/>
<path d="M228.67 119.029H244.637C249.588 139.057 254.538 159.102 259.489 179.165H259.871V119.106H275.986V234.353H261.554C256.037 212.84 250.52 191.297 245.003 169.723L244.66 169.769V234.069C243.25 234.53 231.171 234.645 228.67 234.253V119.029Z" fill="white"/>
<path d="M0 234.413V119.105C0.568851 119.059 1.04419 118.99 1.5585 118.99C10.3406 118.99 19.1227 118.905 27.9049 119.036C30.453 119.088 32.9844 119.455 35.4402 120.127C40.3339 121.441 43.5989 124.652 45.3912 129.347C46.6693 132.885 47.2819 136.624 47.199 140.38C47.2354 164.32 47.2354 188.263 47.199 212.209C47.2316 215.527 46.7748 218.832 45.8432 222.021C43.5755 229.458 38.2377 233.73 30.3673 234.314C28.762 234.429 27.1334 234.429 25.5204 234.437H0V234.413ZM17.8292 134.802V217.595C19.7306 217.595 21.5384 217.741 23.2839 217.595C26.3464 217.288 28.0062 215.705 28.4815 212.693C28.7425 210.933 28.8676 209.156 28.8555 207.377C28.8555 186.617 28.8555 165.859 28.8555 145.105C28.896 144.185 28.8777 143.264 28.801 142.347C28.668 140.883 28.4073 139.433 28.0218 138.013C27.7999 137.135 27.2932 136.352 26.5787 135.783C25.8642 135.215 24.9809 134.892 24.0632 134.863C22.0683 134.702 20.0189 134.802 17.8292 134.802Z" fill="white"/>
<path d="M439.496 116.708V1.38452C440.182 1.3461 440.782 1.28464 441.382 1.28464C449.954 1.28464 458.572 1.21549 467.159 1.28464C469.522 1.30774 471.874 1.59121 474.173 2.12978C479.627 3.42055 483.204 6.83187 485.035 12.041C486.138 15.3726 486.665 18.8633 486.594 22.3672C486.594 46.5025 486.594 70.6301 486.594 94.7501C486.631 98.1938 486.104 101.621 485.035 104.899C482.776 111.661 478.022 115.41 470.908 116.347C469.178 116.56 467.437 116.665 465.694 116.662C457.668 116.662 449.634 116.662 441.6 116.662L439.496 116.708ZM457.364 99.8056C459.227 99.8056 460.902 99.8747 462.57 99.8056C465.476 99.6673 467.245 98.3151 467.83 95.4877C468.203 93.5636 468.378 91.6072 468.352 89.6485C468.388 68.8425 468.388 48.0391 468.352 27.2383C468.367 25.8274 468.305 24.4167 468.165 23.0126C468.043 21.9799 467.803 20.9643 467.448 19.9854C467.207 19.248 466.763 18.5916 466.164 18.0906C465.564 17.5895 464.835 17.2638 464.058 17.1503C461.853 16.7431 459.64 16.9583 457.349 16.9659L457.364 99.8056Z" fill="white"/>
<path d="M235.504 65.0934V116.57H217.792V1.36964C218.493 1.36964 219.093 1.28513 219.701 1.28513C228.795 1.28513 237.889 1.22367 246.975 1.28513C249.274 1.30812 251.564 1.58385 253.801 2.10722C256.118 2.56928 258.248 3.68764 259.929 5.32527C261.611 6.9629 262.772 9.04867 263.269 11.327C263.884 13.7041 264.221 16.1426 264.274 18.5952C264.399 25.656 264.337 32.7168 264.274 39.7776C264.265 41.2515 264.127 42.7219 263.861 44.1723C263.082 48.4825 261.048 52.0168 256.848 54.2602C257.448 54.629 257.892 54.921 258.352 55.1822C259.903 56.053 261.223 57.2722 262.206 58.7407C263.189 60.2091 263.807 61.8855 264.009 63.6336C264.204 64.9695 264.298 66.3177 264.29 67.6673C264.29 80.3854 264.29 93.0984 264.29 105.806C264.29 109.133 264.368 112.437 265.848 115.541C265.931 115.87 265.97 116.208 265.965 116.547C265.535 116.624 265.1 116.675 264.664 116.701C259.677 116.701 254.697 116.701 249.718 116.701C249.259 116.765 248.792 116.656 248.41 116.397C248.027 116.139 247.757 115.748 247.653 115.303C246.852 112.713 246.499 110.009 246.609 107.304C246.609 95.8797 246.609 84.4549 246.609 73.0378C246.63 71.8706 246.58 70.7033 246.461 69.542C246.157 67.0449 244.988 65.7004 242.463 65.4008C240.258 65.1472 238.021 65.201 235.504 65.0934ZM235.645 48.6285C237.624 48.6285 239.369 48.7053 241.099 48.6285C242.268 48.6392 243.404 48.2487 244.312 47.524C245.221 46.7992 245.845 45.7854 246.079 44.6563C246.391 43.532 246.553 42.3723 246.562 41.2066C246.609 35.306 246.609 29.4156 246.562 23.5354C246.532 22.3713 246.357 21.2152 246.04 20.0934C245.856 19.4349 245.498 18.8366 245.003 18.3599C244.507 17.8832 243.891 17.5454 243.219 17.3813C240.725 16.6975 238.201 16.9587 235.637 17.0278L235.645 48.6285Z" fill="white"/>
<path d="M402.871 119.105H420.529C420.529 119.796 420.615 120.503 420.615 121.21V165.112H432.623C432.623 162.515 432.623 159.964 432.662 157.428V119.013C438.6 118.967 444.413 119.013 450.203 119.013C450.592 120.472 450.678 232.147 450.296 234.306H432.685V183.882H420.607V234.275H402.871V119.105Z" fill="white"/>
<path d="M47.5341 116.654H29.8529C29.7205 111.053 29.8062 105.49 29.7906 99.9353C29.775 94.3804 29.7906 88.6411 29.7906 82.9863V66.2832C28.3646 65.8683 20.6345 65.7684 17.7279 66.1219C17.7279 69.4256 17.7279 72.7754 17.7279 76.1099V116.562H0V1.38378H17.6655C17.759 3.56579 17.6655 5.75549 17.7123 7.94518C17.759 10.1349 17.7123 12.24 17.7123 14.3913V47.1215C19.1539 47.521 26.7671 47.6286 29.7594 47.2828C29.814 44.2787 29.7594 41.2362 29.7594 38.2014C29.7594 35.1665 29.7594 32.0548 29.7594 28.9816V1.62196C31.2556 1.20707 45.2041 1.12256 47.4639 1.48367L47.5341 116.654Z" fill="white"/>
<path d="M505.178 176.629C505.178 187.931 505.178 199.233 505.178 210.535C505.226 214.904 504.481 219.247 502.98 223.358C500.347 230.326 495.235 234.368 487.816 235.405C482.761 236.211 477.599 236.104 472.582 235.09C466.161 233.676 461.672 229.896 459.155 223.926C457.645 220.143 456.795 216.135 456.638 212.071C456.568 211.034 456.561 209.981 456.561 208.937C456.561 187.378 456.561 165.819 456.561 144.26C456.481 140.203 457.006 136.157 458.119 132.251C460.667 123.876 466.488 119.113 475.325 118.129C479.353 117.683 483.421 117.714 487.442 118.221C496.123 119.305 501.874 124.514 504.025 133.211C504.907 137.111 505.308 141.102 505.217 145.097C505.217 155.597 505.217 166.098 505.217 176.598L505.178 176.629ZM487.053 176.905C487.053 165.857 487.053 154.816 487.053 143.768C487.056 141.993 486.817 140.225 486.343 138.513C485.564 135.823 483.624 134.671 480.671 134.74C477.865 134.802 476.034 136.069 475.348 138.743C474.92 140.408 474.702 142.119 474.701 143.837C474.655 165.739 474.655 187.646 474.701 209.559C474.719 211.337 474.981 213.105 475.481 214.814C476.26 217.473 478.489 218.848 481.309 218.763C482.543 218.8 483.748 218.398 484.706 217.631C485.663 216.863 486.308 215.782 486.523 214.584C486.904 212.975 487.093 211.327 487.084 209.674C487.076 198.749 487.029 187.831 487.029 176.905H487.053Z" fill="white"/>
<path d="M559.446 176.446C559.446 187.504 559.446 198.56 559.446 209.614C559.499 213.364 559.051 217.105 558.113 220.739C555.775 229.268 550.383 234.469 541.336 235.514C536.455 236.209 531.489 236.055 526.663 235.061C523.782 234.462 521.092 233.181 518.823 231.331C516.555 229.48 514.777 227.113 513.641 224.435C511.717 220.217 511.109 215.73 510.852 211.174C510.805 210.405 510.813 209.699 510.813 208.961C510.813 187.341 510.813 165.72 510.813 144.1C510.732 139.856 511.345 135.627 512.628 131.576C515.309 123.563 520.982 119.16 529.413 118.184C534.117 117.566 538.89 117.704 543.549 118.592C550.141 119.944 554.747 123.678 557.209 129.909C558.556 133.343 559.279 136.984 559.344 140.665C559.469 146.259 559.422 151.844 559.43 157.438C559.451 163.779 559.456 170.115 559.446 176.446ZM528.993 176.569C528.993 187.371 528.993 198.171 528.993 208.969C528.954 210.005 528.994 211.042 529.109 212.073C529.25 213.224 529.533 214.354 529.951 215.438C530.418 216.524 531.229 217.432 532.263 218.027C533.296 218.621 534.498 218.869 535.686 218.734C536.823 218.749 537.93 218.382 538.827 217.693C539.723 217.005 540.355 216.036 540.619 214.946C541.077 213.356 541.321 211.713 541.344 210.06C541.39 187.84 541.39 165.625 541.344 143.416C541.333 141.821 541.105 140.234 540.666 138.698C539.886 135.879 537.97 134.657 534.954 134.718C532.071 134.78 530.216 136.078 529.546 138.86C529.175 140.535 528.995 142.246 529.008 143.961C528.969 154.841 528.993 165.705 528.993 176.569Z" fill="white"/>
<path d="M221.587 155.577H204.288V153.68C204.288 149.838 204.288 146.058 204.288 142.255C204.281 140.906 204.116 139.563 203.797 138.252C203.228 136.009 201.677 134.887 199.34 134.756C196.659 134.603 195.038 135.486 194.056 137.668C193.38 139.392 193.082 141.239 193.183 143.085C193.183 150.084 193.183 157.083 193.183 164.083C193.183 179.134 193.183 194.178 193.183 209.221C193.185 210.937 193.407 212.646 193.846 214.307C194.083 215.437 194.713 216.449 195.626 217.17C196.539 217.891 197.679 218.275 198.849 218.256C201.638 218.356 203.906 217.112 204.818 214.714C205.277 213.508 205.52 212.231 205.535 210.942C205.589 201.791 205.535 192.649 205.535 183.498C205.535 183.075 205.457 182.653 205.394 182.046H197.602V164.605C198.825 164.206 218.548 164.029 222.101 164.405C222.475 165.704 222.6 231.402 222.218 234.26H212.345C211.418 230.811 210.467 227.299 209.431 223.435C208.971 224.288 208.714 224.772 208.464 225.248C207 227.967 205.031 230.391 202.659 232.393C195.95 238.133 184.417 237.195 179.032 229.113C176.714 225.526 175.373 221.412 175.136 217.165C175.074 216.397 175.082 215.567 175.082 214.768C175.082 190.694 175.082 166.621 175.082 142.547C174.972 138.176 175.735 133.827 177.326 129.747C180.154 122.924 185.375 119.144 192.708 118.222C197.529 117.558 202.427 117.672 207.21 118.56C214.13 119.905 218.439 124.023 220.325 130.684C221.486 134.81 221.618 139.051 221.712 143.277C221.797 146.965 221.712 150.653 221.712 154.333C221.704 154.686 221.642 155.047 221.587 155.577Z" fill="white"/>
<path d="M379.579 184.221H396.956C397.011 184.744 397.105 185.212 397.105 185.681C397.105 194.517 397.105 203.352 397.105 212.203C397.111 215.586 396.615 218.951 395.632 222.191C393.294 229.79 388.283 234.484 380.179 235.491C375.179 236.223 370.087 236.093 365.132 235.107C358.594 233.647 354.223 229.728 351.885 223.582C350.818 220.564 350.201 217.409 350.054 214.216C350.015 213.601 350.015 212.987 350.015 212.372C350.015 188.186 350.015 163.994 350.015 139.797C350.024 136.846 350.511 133.916 351.456 131.115C353.794 124.078 358.618 119.66 366.036 118.415C371.638 117.433 377.38 117.546 382.938 118.746C390.606 120.436 394.884 125.438 396.294 132.89C396.747 135.244 396.994 137.632 397.034 140.028C397.136 147.142 397.073 154.272 397.073 161.395C397.073 161.694 397.073 162.002 397.027 162.286C395.717 162.731 382.088 162.854 379.54 162.416V160.496C379.54 154.349 379.54 148.203 379.54 142.056C379.54 140.831 379.386 139.61 379.081 138.422C378.855 137.387 378.275 136.46 377.438 135.796C376.6 135.133 375.557 134.774 374.483 134.78C373.799 134.723 373.11 134.723 372.426 134.78C370.579 134.972 369.192 135.894 368.756 137.692C368.379 139.24 368.188 140.826 368.187 142.417C368.145 159.243 368.145 176.067 368.187 192.888C368.187 198.781 368.148 204.681 368.187 210.559C368.188 212.089 368.387 213.612 368.779 215.092C369.426 217.443 371.171 218.634 373.602 218.726C376.034 218.818 378.052 217.674 378.823 215.369C379.28 213.97 379.519 212.512 379.533 211.043C379.595 202.814 379.533 194.586 379.533 186.357L379.579 184.221Z" fill="white"/>
<path d="M98.0602 190.79H115.624V192.865C115.624 198.819 115.624 204.781 115.624 210.735C115.606 212.145 115.766 213.552 116.1 214.923C116.98 218.273 120.323 219.817 123.612 218.549C124.23 218.329 124.787 217.968 125.239 217.498C125.691 217.027 126.025 216.458 126.214 215.837C126.69 214.507 126.976 213.119 127.064 211.711C127.064 207.785 127.064 203.851 126.76 199.941C126.416 196.85 125.19 193.919 123.222 191.489C119.747 186.879 116.147 182.269 112.593 177.713C110.848 175.47 109.071 173.257 107.333 171.014C102.047 164.253 99.112 155.992 98.9641 147.457C98.8473 142.732 98.6291 138.007 99.5798 133.32C101.364 124.531 107.263 119.153 116.271 118.2C121.098 117.586 125.991 117.684 130.789 118.492C138.862 120.028 143.194 124.677 144.083 132.706C144.301 134.711 144.402 136.739 144.426 138.768C144.472 144.107 144.426 149.447 144.426 154.795V156.562C142.922 156.954 130.812 157.069 127.329 156.754C127.329 156.139 127.235 155.494 127.235 154.848C127.235 150 127.235 145.145 127.235 140.297C127.236 139.132 127.11 137.97 126.861 136.831C126.355 134.611 124.82 133.52 122.373 133.443C119.926 133.366 118.258 134.427 117.573 136.685C117.465 136.974 117.386 137.273 117.339 137.577C116.684 144.407 116.684 151.13 121.11 156.984C124.461 161.417 127.874 165.797 131.241 170.199C133.726 173.426 136.275 176.615 138.682 179.895C142.01 184.413 144.527 189.338 145.392 194.916C145.78 197.404 146.009 199.914 146.078 202.43C146.218 207.708 146.374 212.994 145.22 218.203C144.528 221.711 143.08 225.03 140.973 227.938C139.468 229.946 137.565 231.632 135.379 232.894C133.192 234.155 130.769 234.965 128.256 235.275C123.377 236.065 118.397 236.013 113.536 235.122C105.019 233.485 99.8213 228.153 98.4576 219.694C98.1683 217.998 98.0146 216.282 97.9979 214.562C97.9433 207.132 97.9979 199.703 97.9979 192.281C97.9745 191.843 98.0212 191.42 98.0602 190.79Z" fill="white"/>
<path d="M343.648 156.753H326.559V154.686C326.559 150.014 326.559 145.351 326.559 140.679C326.571 139.271 326.416 137.866 326.099 136.492C325.585 134.464 324.073 133.503 321.759 133.419C319.445 133.334 317.777 134.287 317.083 136.285C316.842 136.917 316.687 137.578 316.624 138.251C316.351 141.932 316.109 145.643 316.99 149.246C317.505 151.266 318.291 153.209 319.328 155.024C320.581 157.144 321.985 159.175 323.528 161.101C327.299 165.995 331.164 170.805 334.944 175.699C336.565 177.797 338.131 179.948 339.619 182.145C343.011 187.179 344.98 193.014 345.323 199.048C345.697 204.941 345.892 210.834 344.879 216.72C344.551 218.593 344.063 220.436 343.422 222.229C340.765 229.574 335.513 234.022 327.697 235.29C322.83 236.1 317.856 236.048 313.008 235.136C304.374 233.484 299.067 227.968 297.813 219.386C297.552 217.687 297.411 215.972 297.392 214.253C297.345 206.885 297.392 199.509 297.392 192.141C297.392 191.78 297.431 191.419 297.446 191.073C298.779 190.658 311.746 190.52 315.018 190.904V192.817C315.018 198.526 315.018 204.242 315.018 209.951C314.999 211.422 315.13 212.892 315.408 214.338C316.32 218.548 319.133 219.255 322.312 218.763C323.032 218.672 323.713 218.384 324.276 217.932C324.839 217.48 325.263 216.882 325.499 216.205C326.002 215.085 326.315 213.891 326.427 212.671C326.52 208.745 326.551 204.811 326.364 200.892C326.113 197.748 324.992 194.732 323.123 192.172C321.852 190.282 320.497 188.438 319.094 186.64C315.439 181.976 311.722 177.359 308.052 172.703C304.117 167.709 300.821 162.361 299.55 156.084C298.943 153.076 298.568 150.028 298.428 146.964C298.226 142.554 298.078 138.121 298.904 133.741C299.336 131.254 300.209 128.862 301.483 126.673C304.452 121.679 309.112 119.189 314.73 118.36C319.974 117.537 325.322 117.607 330.541 118.567C337.98 119.981 342.253 124.383 343.36 131.775C343.643 133.657 343.794 135.557 343.812 137.46C343.866 143.476 343.812 149.5 343.812 155.516C343.749 155.854 343.703 156.222 343.648 156.753Z" fill="white"/>
<path d="M82.0395 38.8242V36.8958C82.0395 32.2244 82.0395 27.5607 82.0395 22.8894C82.0457 21.5411 81.902 20.1962 81.6109 18.8788C81.0888 16.7429 79.577 15.7671 77.1614 15.7287C74.5899 15.7287 73.1015 16.6353 72.4235 18.802C72.2057 19.379 72.0769 19.985 72.0417 20.5998C72.0417 23.7269 71.9482 26.8616 72.1508 29.9809C72.4263 32.8735 73.4602 35.6457 75.1509 38.0252C76.4341 39.9818 77.7952 41.8898 79.2342 43.7492C83.0525 48.6741 86.9565 53.5452 90.767 58.4778C92.3255 60.5266 93.8295 62.6343 95.2789 64.801C98.286 69.278 100.12 74.4204 100.617 79.7678C101.209 86.1448 101.451 92.5372 100.305 98.8681C99.8441 101.465 99.0779 103.999 98.0218 106.421C95.2711 112.621 90.3151 116.294 83.598 117.454C78.6116 118.306 73.5136 118.306 68.5273 117.454C60.0647 116.032 54.5008 110.285 53.2618 101.757C52.9917 99.9968 52.8459 98.2203 52.8255 96.4402C52.7787 89.0721 52.8255 81.7039 52.8255 74.3281C52.8255 73.967 52.8722 73.5598 52.8956 73.2448C54.2125 72.8683 67.6078 72.7607 70.4521 73.1295V75.035C70.4521 80.6898 70.4521 86.3369 70.4521 91.9917C70.4369 93.5863 70.5752 95.1787 70.8651 96.7476C71.5975 100.32 74.6756 102.003 78.2212 100.92C78.8567 100.747 79.4397 100.424 79.9192 99.9775C80.3987 99.5315 80.7601 98.9765 80.9719 98.361C81.483 97.1095 81.7957 95.7879 81.8992 94.4426C81.9537 90.5165 81.8992 86.5904 81.6966 82.672C81.5553 80.3051 80.7927 78.0149 79.4835 76.0261C78.0419 73.7211 76.5224 71.4777 74.8704 69.3417C71.091 64.4553 67.1948 59.661 63.3765 54.8052C59.8309 50.3182 56.8853 45.4932 55.3269 39.969C54.374 36.5283 53.8506 32.9858 53.7684 29.4201C53.6437 24.8793 53.4489 20.3309 54.3216 15.8286C54.7934 13.1598 55.7829 10.6059 57.236 8.30676C58.5216 6.32936 60.2163 4.64196 62.2091 3.35502C64.2019 2.06807 66.4479 1.2106 68.8 0.838734C74.5632 -0.279578 80.4921 -0.279578 86.2552 0.838734C93.697 2.32158 97.7725 6.83928 98.8011 14.2996C99.0555 16.123 99.1934 17.9603 99.2141 19.8008C99.2686 25.7014 99.2141 31.5944 99.2141 37.472C99.2141 37.8946 99.2141 38.3172 99.1517 38.709C97.7413 39.2007 84.159 39.2007 82.0395 38.8242Z" fill="white"/>
<path d="M346.056 1.38281H367.228C372.309 39.7987 377.379 78.1378 382.439 116.4C380.943 116.792 369.667 116.915 365.342 116.592C364.368 109.524 363.784 102.34 362.888 95.0792H350.069C349.29 102.163 348.511 109.27 347.685 116.592C342.409 116.792 337.165 116.631 331.749 116.692C336.534 78.1685 341.31 39.8756 346.056 1.38281ZM361.002 77.6154C359.498 64.0161 358.01 50.5398 356.521 37.0635H356.139C354.698 50.5321 353.264 64.0084 351.815 77.5923L361.002 77.6154Z" fill="white"/>
<path d="M214.885 116.624H197.742C196.957 109.453 196.163 102.282 195.357 95.1112H182.492C181.697 102.282 180.902 109.453 180.108 116.624H164.188C168.956 78.1622 173.72 39.7465 178.479 1.37695H199.651L214.885 116.624ZM188.921 36.8961H188.578C187.136 50.4184 185.695 63.9331 184.237 77.6167H193.425L188.921 36.8961Z" fill="white"/>
<path d="M71.4491 216.882H94.6473V234.353H53.7212C53.3393 232.97 53.2458 121.41 53.6277 119.105H93.7824V135.755C86.3561 135.862 78.9065 135.755 71.3322 135.816V165.973C77.1298 166.134 82.9586 165.973 88.9121 166.073V183.498C87.0652 183.667 85.1561 183.56 83.2625 183.575C81.3689 183.59 79.2728 183.575 77.2779 183.575H71.5582C71.1218 185.004 71.0361 214.692 71.4491 216.882Z" fill="white"/>
<path d="M123.901 65.792V99.0141H147.013C147.481 100.459 147.636 112.682 147.286 116.386C145.969 116.793 110.287 116.977 106.29 116.601C105.892 115.325 105.729 4.62628 106.126 1.55301C107.482 1.1919 143.834 1.09202 146.296 1.46081V17.9412H124.173C123.745 19.4779 123.651 45.8619 124.049 48.2053H141.426V65.792H123.901Z" fill="white"/>
<path d="M300.213 116.601H282.509V18.0413H267.703V1.55333C269.067 1.19223 312.346 1.0693 315.12 1.43809C315.284 6.81628 315.12 12.2559 315.206 17.8877H300.463C300.361 18.4716 300.252 18.8711 300.221 19.2706C300.221 19.8238 300.221 20.377 300.221 20.9302V116.601H300.213Z" fill="white"/>
<path d="M565.733 234.299V119.105H583.329V216.558H604.976V234.299H565.733Z" fill="white"/>
<path d="M151.252 119.045H168.614C168.995 120.413 169.128 231.426 168.769 234.115C167.437 234.492 153.457 234.569 151.252 234.2V119.045Z" fill="white"/>
</svg>
