<svg width="339" height="238" viewBox="0 0 339 238" fill="none" xmlns="http://www.w3.org/2000/svg">
<g clip-path="url(#clip0_470_747)">
<path d="M170.125 123.15C170.125 123.15 127.919 17.9214 24.0453 0.973645C24.0453 0.973645 -23.7213 0.720689 16.716 74.0768C16.716 74.0768 27.0781 127.197 56.6478 127.197H71.3064C71.3064 127.197 47.8022 137.062 36.6819 156.539C36.6819 156.539 41.2311 173.487 36.6819 181.834C36.6819 181.834 49.0659 195.494 45.2749 206.371C45.2749 206.371 63.2189 216.236 63.2189 226.86C63.2189 226.86 83.6903 228.631 87.734 237.484C87.734 237.484 100.371 232.425 106.942 238.243L128.171 228.378L171.389 155.274L170.125 123.15Z" fill="#4D4AE9"/>
<path d="M169.114 123.15C169.114 123.15 211.321 17.9214 315.194 0.973645C315.194 0.973645 362.961 0.720689 322.523 74.0768C322.523 74.0768 312.161 127.197 282.591 127.197H267.933C267.933 127.197 291.437 137.062 302.557 156.539C302.557 156.539 298.008 173.487 302.557 181.834C302.557 181.834 290.173 195.494 293.964 206.371C293.964 206.371 276.02 216.236 276.02 226.86C276.02 226.86 255.549 228.631 251.505 237.484C251.505 237.484 238.869 232.425 232.298 238.243L211.068 228.378L167.851 155.022L169.114 123.15Z" fill="#5956F8"/>
</g>
<defs>
<clipPath id="clip0_470_747">
<rect width="338.157" height="237.016" fill="white" transform="translate(0.541016 0.973633)"/>
</clipPath>
</defs>
</svg>
