<svg width="364" height="761" viewBox="0 0 364 761" fill="none" xmlns="http://www.w3.org/2000/svg">
<path d="M215.643 131.171C150.179 42.9738 66.0269 10.6872 0 0V300.029H0.5066C4.84084 361.79 40.0214 415.001 90.7377 444.419C142.411 474.399 173.088 530.704 173.088 590.383C173.088 666.6 123.61 733.929 50.8289 756.766L38.783 760.535H324.843L312.797 756.766C240.072 733.929 190.538 666.543 190.538 590.383C190.538 530.647 221.215 474.399 272.889 444.419C323.605 415.001 358.785 361.733 363.12 300.029H363.626V218.075C312.572 213.069 259.323 190.007 215.643 131.171Z" fill="#FE3767"/>
</svg>
