<svg xmlns="http://www.w3.org/2000/svg" xmlns:xlink="http://www.w3.org/1999/xlink" viewBox="0 0 179.1 268.54"><defs><style>.cls-1{fill:#fff;stroke:#1d1d1b;}.cls-1,.cls-2{stroke-miterlimit:10;}.cls-2{fill:#1d1d1b;stroke:#fff;}.cls-3{fill:url(#Безымянный_градиент_40);}.cls-4{fill:url(#Безымянный_градиент_40-2);}.cls-5{fill:url(#Безымянный_градиент_40-3);}.cls-6{fill:url(#Безымянный_градиент_40-4);}.cls-7{fill:url(#Безымянный_градиент_40-5);}.cls-8{fill:url(#Безымянный_градиент_40-6);}.cls-9{fill:url(#Безымянный_градиент_40-7);}.cls-10{fill:url(#Безымянный_градиент_40-8);}.cls-11{fill:url(#Безымянный_градиент_39);}.cls-12{fill:#ff3767;}.cls-13{fill:#7de3ff;}</style><linearGradient id="Безымянный_градиент_40" x1="23.68" y1="10.58" x2="23.68" y2="35.3" gradientUnits="userSpaceOnUse"><stop offset="0.02" stop-color="#00dbff"/><stop offset="0.18" stop-color="#00bddc"/><stop offset="0.53" stop-color="#006f82"/><stop offset="1"/></linearGradient><linearGradient id="Безымянный_градиент_40-2" x1="31.69" y1="7.67" x2="31.69" y2="19.65" xlink:href="#Безымянный_градиент_40"/><linearGradient id="Безымянный_градиент_40-3" x1="684.61" y1="10.58" x2="684.61" y2="35.3" gradientTransform="matrix(-1, 0, 0, 1, 840.6, 0)" xlink:href="#Безымянный_градиент_40"/><linearGradient id="Безымянный_градиент_40-4" x1="692.62" y1="7.67" x2="692.62" y2="19.65" gradientTransform="matrix(-1, 0, 0, 1, 840.6, 0)" xlink:href="#Безымянный_градиент_40"/><linearGradient id="Безымянный_градиент_40-5" x1="23.16" y1="823.37" x2="23.16" y2="848.09" gradientTransform="matrix(1, 0, 0, -1, 0, 1066.87)" xlink:href="#Безымянный_градиент_40"/><linearGradient id="Безымянный_градиент_40-6" x1="31.17" y1="820.47" x2="31.17" y2="832.44" gradientTransform="matrix(1, 0, 0, -1, 0, 1066.87)" xlink:href="#Безымянный_градиент_40"/><linearGradient id="Безымянный_градиент_40-7" x1="685.14" y1="823.37" x2="685.14" y2="848.09" gradientTransform="translate(840.6 1066.87) rotate(180)" xlink:href="#Безымянный_градиент_40"/><linearGradient id="Безымянный_градиент_40-8" x1="693.14" y1="820.47" x2="693.14" y2="832.44" gradientTransform="translate(840.6 1066.87) rotate(180)" xlink:href="#Безымянный_градиент_40"/><linearGradient id="Безымянный_градиент_39" x1="90.11" y1="63.18" x2="90.11" y2="195.18" gradientUnits="userSpaceOnUse"><stop offset="0.02" stop-color="#ff3767"/><stop offset="0.18" stop-color="#dc2f59"/><stop offset="0.53" stop-color="#821c34"/><stop offset="1"/></linearGradient></defs><g id="Слой_2" data-name="Слой 2"><g id="Слой_1-2" data-name="Слой 1"><rect class="cls-1" x="0.5" y="0.5" width="178.1" height="267.54" rx="13.84"/><path class="cls-2" d="M159.73,39.21c-12,0-21.76-9-21.76-20.1,0-.36,0-.72,0-1.08a8.46,8.46,0,0,0-8.62-8.86H49.08A8.45,8.45,0,0,0,40.47,18q0,.54,0,1.08c0,11.1-9.74,20.1-21.76,20.1h-.63a8.55,8.55,0,0,0-9,8.3v160c0,4.68,4.07,8.32,9,8.3h.1c12,0,21.76,9,21.76,20.1,0,.36,0,.71,0,1.06-.27,4.76,3.9,8.69,8.93,8.69h79.66c5,0,9.21-3.93,8.94-8.69,0-.35,0-.7,0-1.06,0-11.1,9.74-20.1,21.76-20.1.34,0,.68,0,1,0a8.51,8.51,0,0,0,9-8.31v-160a8.57,8.57,0,0,0-9-8.31Z"/><path class="cls-3" d="M15.06,23.2s8.86,0,8.86-12.62c0,0,.12,13,8.39,13,0,0-8.36-.18-8.36,11.74C24,35.3,24.84,23.2,15.06,23.2Z"/><path class="cls-4" d="M27.51,13.79s4.29,0,4.29-6.12c0,0,.06,6.29,4.07,6.29,0,0-4-.08-4,5.69C31.82,19.65,32.25,13.79,27.51,13.79Z"/><path class="cls-5" d="M164.61,23.2s-8.85,0-8.85-12.62c0,0-.13,13-8.4,13,0,0,8.36-.18,8.36,11.74C155.72,35.3,154.83,23.2,164.61,23.2Z"/><path class="cls-6" d="M152.17,13.79s-4.29,0-4.29-6.12c0,0-.07,6.29-4.07,6.29,0,0,4.05-.08,4.05,5.69C147.86,19.65,147.43,13.79,152.17,13.79Z"/><path class="cls-7" d="M14.54,230.87s8.85,0,8.85,12.63c0,0,.13-13,8.4-13,0,0-8.36.18-8.36-11.73C23.43,218.78,24.32,230.87,14.54,230.87Z"/><path class="cls-8" d="M27,240.29s4.29,0,4.29,6.11c0,0,.06-6.29,4.06-6.29,0,0-4.05.09-4.05-5.68C31.29,234.43,31.73,240.29,27,240.29Z"/><path class="cls-9" d="M164.09,230.87s-8.85,0-8.85,12.63c0,0-.13-13-8.4-13,0,0,8.36.18,8.36-11.73C155.2,218.78,154.31,230.87,164.09,230.87Z"/><path class="cls-10" d="M151.65,240.29s-4.3,0-4.3,6.11c0,0-.06-6.29-4.06-6.29,0,0,4.05.09,4.05-5.68C147.34,234.43,146.91,240.29,151.65,240.29Z"/><path class="cls-11" d="M93.11,63.18s-6,25.3-11.83,34.84c-9.92,16.15-9.92,30.88,1.3,51a23.7,23.7,0,0,1,3,11.85,29.44,29.44,0,0,1-3.7,14.46l15.81,19.83a46.7,46.7,0,0,1,1.93-22.38c.85-2.55,1.7-5.34,2.67-7.85,2.91-7.55,6.3-13.22,1.79-24.92-2.42-6.27-5.49-10-7.8-20.06C95.1,115,92.46,109.82,99.8,96.15Z"/><path class="cls-12" d="M79.68,91.06s1.84-2.26-2.83-7.36.28-6.8,2.27-5.38S83.93,85.54,79.68,91.06Z"/><path class="cls-12" d="M80.82,76.9a4.45,4.45,0,0,0-2.29-2.59,1.85,1.85,0,0,1-1.2-2c.1-.55.48-1.07,1.5-1.27C81.38,70.6,80.82,76.9,80.82,76.9Z"/><path class="cls-12" d="M108.18,165.61s-1.84,2.27,2.83,7.37-.28,6.8-2.27,5.38S103.93,171.14,108.18,165.61Z"/><path class="cls-12" d="M107,179.78a4.42,4.42,0,0,0,2.29,2.58,1.87,1.87,0,0,1,1.2,2c-.1.55-.48,1.06-1.5,1.26C106.48,186.08,107,179.78,107,179.78Z"/><path class="cls-13" d="M92.41,75.13a28.91,28.91,0,0,0,7.39,21l16.78-20.5,0,0a16.06,16.06,0,0,0,1.92-14.91A14.84,14.84,0,0,1,121,46.13h0a15.4,15.4,0,0,1,17.65-4.54l1,.42L120.16,26l.62.93a15.4,15.4,0,0,1-1,18.21h0A14.86,14.86,0,0,1,106,50.53a16,16,0,0,0-14.23,4.82l0,0-4.58,5.61A18,18,0,0,1,92.41,75.13Z"/><path class="cls-13" d="M92.4,181A28.88,28.88,0,0,0,85,160l-16.78,20.5,0,0a16,16,0,0,0-1.92,14.91A14.86,14.86,0,0,1,63.81,210h0a15.4,15.4,0,0,1-17.66,4.54l-1-.41,19.53,16-.61-.94A15.4,15.4,0,0,1,65,211h0a14.87,14.87,0,0,1,13.79-5.37A16.06,16.06,0,0,0,93,200.75l0,0,4.59-5.6A18,18,0,0,1,92.4,181Z"/></g></g></svg>