<svg width="356" height="536" viewBox="0 0 356 536" fill="none" xmlns="http://www.w3.org/2000/svg">
<g clip-path="url(#clip0_428_610)">
<path d="M328.598 536H27.5998C12.3999 536 0 523.57 0 508.333V27.3691C0 12.1322 12.3999 -0.297852 27.5998 -0.297852H328.398C343.598 -0.297852 355.998 12.1322 355.998 27.3691V508.333C356.198 523.77 343.798 536 328.598 536Z" fill="#1D1D1B"/>
<path opacity="0.35" d="M314.998 515.15H43.0002C31.0003 515.15 21.4004 505.526 21.4004 493.497V37.9952C21.4004 25.9661 31.0003 16.3428 43.0002 16.3428H314.998C326.998 16.3428 336.598 25.9661 336.598 37.9952V493.497C336.798 505.526 326.998 515.15 314.998 515.15Z" fill="url(#paint0_linear_428_610)"/>
<path d="M178.599 16.9434L179.199 79.2942L179.399 141.445L179.599 266.146L179.399 390.647L179.199 452.998L178.599 515.149L178.199 452.998L177.799 390.647L177.599 266.146L177.799 141.445L178.199 79.2942L178.599 16.9434Z" fill="url(#paint1_linear_428_610)"/>
<path d="M20.3994 268.152L59.7991 267.55L99.1989 267.35L177.998 267.149L256.598 267.35L295.998 267.55L335.397 268.152L295.998 268.553L256.598 268.954L177.998 269.154L99.1989 268.954L59.7991 268.553L20.3994 268.152Z" fill="url(#paint2_linear_428_610)"/>
<path d="M22 515.349L60.7997 452.798L99.7995 390.447L177.799 265.946L256.398 141.845L295.798 79.695L335.198 17.7451L296.598 80.2965L257.598 142.447L179.399 266.948L100.799 391.249L61.5997 453.399L22 515.349Z" fill="url(#paint3_linear_428_610)"/>
<path d="M335.197 515.35L296.397 454.202L257.597 392.854L180.198 270.357L103.398 147.66L64.9988 86.1114L26.999 24.5625L65.7988 85.7104L104.598 146.858L181.998 269.355L258.797 392.252L297.197 453.601L335.197 515.35Z" fill="url(#paint4_linear_428_610)"/>
<path d="M20.5996 170.314L60.1993 194.172L99.5991 218.03L178.199 265.946L256.798 314.263L295.798 338.521L334.797 363.181L295.398 339.524L255.998 315.666L177.199 267.55L98.7991 219.233L59.5993 194.974L20.5996 170.314Z" fill="url(#paint5_linear_428_610)"/>
<path d="M21.5996 372.805L60.5993 345.74L99.7991 319.075L178.199 265.947L256.998 213.219L296.598 186.956L336.198 160.893L297.198 187.758L257.998 214.422L179.399 267.551L100.599 320.479L61.1993 346.542L21.5996 372.805Z" fill="url(#paint6_linear_428_610)"/>
<path d="M201.398 245.697C196.599 242.289 190.999 240.284 185.399 239.883C187.999 240.685 190.799 242.088 193.199 243.692C205.798 252.714 208.598 269.956 199.799 282.586C190.799 295.217 173.599 298.023 160.999 289.202C157.999 286.997 155.599 284.591 153.799 281.584C155.799 287.398 159.799 292.811 165.199 296.821C179.199 306.845 198.799 303.637 208.798 289.403C218.798 275.369 215.598 255.721 201.398 245.697Z" fill="#D2FDFF"/>
<path d="M192.398 266.748C192.398 266.748 177.398 266.748 177.398 245.496C177.398 245.496 177.198 267.349 163.198 267.349C163.198 267.349 177.198 267.148 177.198 287.197C177.398 287.197 175.798 266.748 192.398 266.748Z" fill="#D2FDFF"/>
<path d="M171.398 250.709C171.398 250.709 164.198 250.709 164.198 240.284C164.198 240.284 163.998 250.91 157.398 250.91C157.398 250.91 164.198 250.709 164.198 260.533C163.998 260.734 163.398 250.709 171.398 250.709Z" fill="#D2FDFF"/>
<path d="M178.199 113.778L181.799 109.969L181.599 115.181L186.999 114.981L182.999 118.59L186.999 122.198L181.599 121.797L181.799 127.21L178.199 123.201L174.599 127.21L174.999 121.797L169.599 122.198L173.599 118.59L169.599 114.981L174.999 115.181L174.599 109.969L178.199 113.778Z" fill="#D2FDFF"/>
<path d="M178.199 418.917L181.799 415.107L181.599 420.32L186.999 420.12L182.999 423.728L186.999 427.337L181.599 426.936L181.799 432.349L178.199 428.339L174.799 432.349L174.999 426.936L169.599 427.337L173.599 423.728L169.599 420.12L174.999 420.32L174.799 415.107L178.199 418.917Z" fill="#D2FDFF"/>
<path d="M270.399 199.987L273.999 195.978L273.599 201.391L278.999 201.19L274.999 204.598L278.999 208.207L273.599 208.007L273.999 213.42L270.399 209.41L266.799 213.42L266.999 208.007L261.599 208.207L265.599 204.598L261.599 201.19L266.999 201.391L266.799 195.978L270.399 199.987Z" fill="#D2FDFF"/>
<path d="M83.5997 327.095L87.1997 323.085L86.7997 328.498L92.1997 328.097L88.1997 331.706L92.1997 335.315L86.7997 335.114L87.1997 340.527L83.5997 336.517L79.9998 340.527L80.1998 335.114L74.7998 335.315L78.7998 331.706L74.7998 328.097L80.1998 328.498L79.9998 323.085L83.5997 327.095Z" fill="#D2FDFF"/>
<path d="M280.798 328.698L284.398 324.688L284.198 330.102L289.598 329.901L285.598 333.51L289.598 336.918L284.198 336.718L284.398 342.131L280.798 338.121L277.198 342.131L277.598 336.718L272.198 336.918L276.198 333.51L272.198 329.901L277.598 330.102L277.198 324.688L280.798 328.698Z" fill="#D2FDFF"/>
<path d="M77.599 200.789L81.1989 196.779L80.9989 202.192L86.3989 201.992L82.3989 205.601L86.3989 209.209L80.9989 208.808L81.1989 214.221L77.599 210.212L73.999 214.221L74.399 208.808L68.999 209.209L72.999 205.601L68.999 201.992L74.399 202.192L73.999 196.779L77.599 200.789Z" fill="#D2FDFF"/>
<path d="M55.599 71.6755C56.4827 71.6755 57.199 70.9575 57.199 70.0717C57.199 69.1859 56.4827 68.4678 55.599 68.4678C54.7154 68.4678 53.999 69.1859 53.999 70.0717C53.999 70.9575 54.7154 71.6755 55.599 71.6755Z" fill="#D2FDFF"/>
<path d="M46.6 269.756C47.4836 269.756 48.2 269.037 48.2 268.152C48.2 267.266 47.4836 266.548 46.6 266.548C45.7163 266.548 45 267.266 45 268.152C45 269.037 45.7163 269.756 46.6 269.756Z" fill="#D2FDFF"/>
<path d="M300.797 74.282C301.681 74.282 302.397 73.5639 302.397 72.6781C302.397 71.7923 301.681 71.0742 300.797 71.0742C299.914 71.0742 299.197 71.7923 299.197 72.6781C299.197 73.5639 299.914 74.282 300.797 74.282Z" fill="#D2FDFF"/>
<path d="M306.798 269.756C307.682 269.756 308.398 269.037 308.398 268.152C308.398 267.266 307.682 266.548 306.798 266.548C305.915 266.548 305.198 267.266 305.198 268.152C305.198 269.037 305.915 269.756 306.798 269.756Z" fill="#D2FDFF"/>
<path d="M305.798 470.441C306.682 470.441 307.398 469.723 307.398 468.837C307.398 467.951 306.682 467.233 305.798 467.233C304.915 467.233 304.198 467.951 304.198 468.837C304.198 469.723 304.915 470.441 305.798 470.441Z" fill="#D2FDFF"/>
<path d="M49.7992 473.048C50.6829 473.048 51.3992 472.33 51.3992 471.444C51.3992 470.558 50.6829 469.84 49.7992 469.84C48.9156 469.84 48.1992 470.558 48.1992 471.444C48.1992 472.33 48.9156 473.048 49.7992 473.048Z" fill="#D2FDFF"/>
<path d="M97.3994 142.047C99.6085 142.047 101.399 140.252 101.399 138.037C101.399 135.823 99.6085 134.027 97.3994 134.027C95.1903 134.027 93.3994 135.823 93.3994 138.037C93.3994 140.252 95.1903 142.047 97.3994 142.047Z" fill="#D2FDFF"/>
<path d="M265.799 409.493C268.008 409.493 269.799 407.698 269.799 405.483C269.799 403.269 268.008 401.474 265.799 401.474C263.59 401.474 261.799 403.269 261.799 405.483C261.799 407.698 263.59 409.493 265.799 409.493Z" fill="#D2FDFF"/>
<path d="M256.598 146.858C258.807 146.858 260.598 145.063 260.598 142.849C260.598 140.634 258.807 138.839 256.598 138.839C254.389 138.839 252.598 140.634 252.598 142.849C252.598 145.063 254.389 146.858 256.598 146.858Z" fill="#D2FDFF"/>
<path d="M95.7998 402.677C98.0089 402.677 99.7997 400.881 99.7997 398.667C99.7997 396.452 98.0089 394.657 95.7998 394.657C93.5907 394.657 91.7998 396.452 91.7998 398.667C91.7998 400.881 93.5907 402.677 95.7998 402.677Z" fill="#D2FDFF"/>
</g>
<defs>
<linearGradient id="paint0_linear_428_610" x1="179.103" y1="16.257" x2="179.103" y2="515.209" gradientUnits="userSpaceOnUse">
<stop stop-color="#00DBFF"/>
<stop offset="1"/>
</linearGradient>
<linearGradient id="paint1_linear_428_610" x1="177.632" y1="266.088" x2="179.632" y2="266.088" gradientUnits="userSpaceOnUse">
<stop stop-color="#00DBFF"/>
<stop offset="1"/>
</linearGradient>
<linearGradient id="paint2_linear_428_610" x1="20.3698" y1="268.086" x2="335.442" y2="268.086" gradientUnits="userSpaceOnUse">
<stop stop-color="#00DBFF"/>
<stop offset="1"/>
</linearGradient>
<linearGradient id="paint3_linear_428_610" x1="21.1204" y1="266.51" x2="336.143" y2="266.51" gradientUnits="userSpaceOnUse">
<stop stop-color="#00DBFF"/>
<stop offset="1"/>
</linearGradient>
<linearGradient id="paint4_linear_428_610" x1="26.0562" y1="269.898" x2="336.142" y2="269.898" gradientUnits="userSpaceOnUse">
<stop stop-color="#00DBFF"/>
<stop offset="1"/>
</linearGradient>
<linearGradient id="paint5_linear_428_610" x1="20.1382" y1="266.762" x2="335.383" y2="266.762" gradientUnits="userSpaceOnUse">
<stop stop-color="#00DBFF"/>
<stop offset="1"/>
</linearGradient>
<linearGradient id="paint6_linear_428_610" x1="20.9728" y1="266.763" x2="336.725" y2="266.763" gradientUnits="userSpaceOnUse">
<stop stop-color="#00DBFF"/>
<stop offset="1"/>
</linearGradient>
<clipPath id="clip0_428_610">
<rect width="356" height="536" fill="white"/>
</clipPath>
</defs>
</svg>
